<?xml version="1.0" encoding="iso-8859-1"?>
<!-- Generator: Adobe Illustrator 18.0.0, SVG Export Plug-In . SVG Version: 6.00 Build 0)  -->
<!DOCTYPE svg PUBLIC "-//W3C//DTD SVG 1.1//EN" "http://www.w3.org/Graphics/SVG/1.1/DTD/svg11.dtd">
<svg version="1.1" id="Capa_1" xmlns="http://www.w3.org/2000/svg" xmlns:xlink="http://www.w3.org/1999/xlink" x="0px" y="0px"
	 viewBox="0 0 494.674 494.674" style="enable-background:new 0 0 494.674 494.674;" xml:space="preserve">
<g id="XMLID_320_">
	<path id="XMLID_322_" d="M491.384,235.101L379.941,42.087c-4.354-7.563-12.443-12.232-21.185-12.232H135.902
		c-8.739,0-16.832,4.67-21.185,12.232L3.289,235.101c-4.386,7.568-4.386,16.894,0,24.474l111.428,193.012
		c4.353,7.562,12.445,12.233,21.185,12.233h222.854c8.741,0,16.83-4.671,21.185-12.233l111.443-193.012
		C495.771,252.004,495.771,242.663,491.384,235.101z M344.623,415.871H150.035L52.74,247.332l97.295-168.529h194.588l97.309,168.529
		L344.623,415.871z"/>
	<polygon id="XMLID_321_" points="168.539,110.846 89.747,247.332 168.539,383.827 326.119,383.827 404.925,247.332 
		326.119,110.846 	"/>
</g>
<g>
</g>
<g>
</g>
<g>
</g>
<g>
</g>
<g>
</g>
<g>
</g>
<g>
</g>
<g>
</g>
<g>
</g>
<g>
</g>
<g>
</g>
<g>
</g>
<g>
</g>
<g>
</g>
<g>
</g>
</svg>
