<svg xmlns="http://www.w3.org/2000/svg" viewBox="0 0 800 600" id="svg2"><path d="M259.5763 491.3938c-7.56 4.38-16.91 4.38-24.47 0l-193.02-111.45c-7.56-4.35-12.23-12.44-12.23-21.18v-222.86c0-8.74 4.67-16.83 12.23-21.18l193.02-111.43c7.57-4.39 16.9-4.39 24.47 0l193.01 111.43c7.56 4.35 12.23 12.44 12.23 21.18v222.86c0 8.74-4.66 16.83-12.23 21.18l-193.01 111.44z" id="Chemin#1" fill="#ffffff" stroke="#3883eb" stroke-width="4"/><path d="M258.0743 463.5087c-6.724 3.9064-15.04 3.9064-21.764 0L64.6363 364.111c-6.724-3.8797-10.8775-11.095-10.8775-18.8897v-198.76c0-7.7948 4.1535-15.01 10.8775-18.8896l171.6744-99.38c6.733-3.9152 15.031-3.9152 21.764 0l171.6653 99.38c6.724 3.8796 10.8775 11.0948 10.8775 18.8896v198.76c0 7.795-4.1446 15.01-10.8775 18.8896l-171.6654 99.388z" id="Chemin#2" stroke-width="4" stroke="#3883eb" fill="#3883eb"/><path d="M350.1357 129.956l-14.4303-.082h-.027c-.0273 0-.053.004-.0797.004v-9.5936c0-2.6703-2.1652-4.8354-4.8364-4.8354H316.253v-9.668c0-2.6704-2.165-4.8348-4.8364-4.8348H191.0078c-.6154-8.1018-7.401-14.506-15.6592-14.506-8.2588 0-15.043 6.4042-15.659 14.5048h-22.3948c-2.6713 0-4.8364 2.1644-4.8364 4.8347V352.363c0 2.6702 2.1645 4.8346 4.8358 4.8346h9.6728v14.5047c0 2.6703 2.1652 4.8347 4.8364 4.8347h9.6728v14.5048c0 2.6696 2.1652 4.834 4.8364 4.834h183.7947c2.6725 0 4.837-2.1644 4.837-4.8347V134.789c.001-2.6588-2.148-4.82-4.808-4.8346zM175.3487 96.11c2.9175 0 5.3575 2.081 5.9154 4.8354h-11.831c.5577-2.7537 2.9977-4.8347 5.916-4.8347zm-33.217 251.4186V110.6154h17.5072v35.0037c0 8.659 7.0472 15.704 15.7092 15.704s15.709-7.045 15.709-15.704v-21.737c0-2.6702-2.1658-4.8346-4.8376-4.8346-2.6714 0-4.8366 2.1644-4.8366 4.8347v21.7376c0 3.3273-2.708 6.034-6.036 6.034-3.3284 0-6.0356-2.7067-6.0356-6.034V110.616h137.2658v236.912H142.1318zm14.5087 19.34v-9.6693H311.416c2.671 0 4.8363-2.165 4.8363-4.8354V125.12h9.673v241.7474H156.641zm14.5112 19.34v-9.6693h159.61c2.6712 0 4.8364-2.165 4.8364-4.8353V139.542c.019 0 .0354.003.0537.003l9.6198.0538v246.609h-174.12z" id="path6" fill="#ffffff"/><path d="M258.212 192.8102h-67.7148c-2.6712 0-4.837 2.1638-4.837 4.8347 0 2.6692 2.1658 4.8342 4.837 4.8342h67.715c2.6712 0 4.8364-2.1644 4.8364-4.8347 0-2.6704-2.1652-4.8354-4.8365-4.8354zm0 19.3388h-67.7148c-2.6712 0-4.837 2.165-4.837 4.836 0 2.6696 2.1658 4.8346 4.837 4.8346h67.715c2.6712 0 4.8364-2.1644 4.8364-4.8346 0-2.6703-2.1652-4.8354-4.8365-4.8354zm-19.3474 19.34h-29.0204c-2.6713 0-4.8365 2.1644-4.8365 4.8354 0 2.6702 2.1646 4.8346 4.8358 4.8346h29.0204c2.671 0 4.836-2.1644 4.836-4.8346 0-2.6703-2.1646-4.8354-4.8365-4.8354z" id="Chemin#3" fill="#ffffff"/></svg>