<svg xmlns="http://www.w3.org/2000/svg" viewBox="0 0 800 600" id="svg2"><path d="M259.5763 491.3938c-7.56 4.38-16.91 4.38-24.47 0l-193.02-111.45c-7.56-4.35-12.23-12.44-12.23-21.18v-222.86c0-8.74 4.67-16.83 12.23-21.18l193.02-111.43c7.57-4.39 16.9-4.39 24.47 0l193.01 111.43c7.56 4.35 12.23 12.44 12.23 21.18v222.86c0 8.74-4.66 16.83-12.23 21.18l-193.01 111.44z" id="Chemin#1" fill="#ffffff" stroke="#3bc492" stroke-width="4"/><path d="M258.0743 463.5087c-6.724 3.9064-15.04 3.9064-21.764 0L64.6363 364.111c-6.724-3.8797-10.8775-11.095-10.8775-18.8897v-198.76c0-7.7948 4.1535-15.01 10.8775-18.8896l171.6744-99.38c6.733-3.9152 15.031-3.9152 21.764 0l171.6653 99.38c6.724 3.8796 10.8775 11.0948 10.8775 18.8896v198.76c0 7.795-4.1446 15.01-10.8775 18.8896l-171.6654 99.388z" id="Chemin#2" stroke-width="4" stroke="#3bc492" fill="#3bc492"/><g id="g4136" fill="#ffffff"><path id="path6" d="M175.8736 135.5738c2.0538 6.369 7.5893 10.6513 13.7758 10.6513h37.4924c6.1916 0 11.7272-4.282 13.776-10.651 1.9678-6.088 8.114-19.707 12.8876-24.033 4.1882-3.801 6.146-9.689 5.1167-15.366-1.009-5.579-4.642-9.991-9.728-11.786-15.138-5.385-28.576-3.568-38.844 5.223-1.842 1.579-4.314 1.579-6.156 0-10.269-8.797-23.691-10.602-38.844-5.228-5.081 1.801-8.73 6.207-9.739 11.798-1.024 5.677.939 11.571 5.122 15.366 5.4 4.899 13.675 19.486 15.139 24.028zM165.529 98.2405c.1767-1.011.8075-2.8115 2.9924-3.59 4.693-1.6762 9.0628-2.498 13.1098-2.498 6.2268 0 11.6665 1.968 16.2484 5.8933 5.5305 4.747 13.251 4.7363 18.7714 0 7.5692-6.488 17.4443-7.6235 29.3682-3.4062 2.17.7785 2.8057 2.5952 2.9873 3.5954.338 1.8762-.3027 3.763-1.7308 5.0553-7.7104 6.9963-14.6033 24.7412-15.895 28.7638-.646 2.001-2.3516 3.353-4.239 3.353h-37.4923c-1.8872 0-3.5827-1.351-4.2387-3.352-2.0992-6.542-11.4546-22.681-18.1558-28.764-1.434-1.297-2.084-3.19-1.741-5.055zm85.7634 58.798c0-2.9845-2.2606-5.4067-5.046-5.4067-.9386 0-1.7662.3514-2.523.8272-.757-.4758-1.5846-.8218-2.5232-.8218h-60.553c-2.7854 0-5.046 2.4222-5.046 5.4067 0 2.984 2.2606 5.406 5.046 5.406h60.553v5.406h-55.507c-2.7853 0-5.046 2.422-5.046 5.407 0 2.984 2.2607 5.406 5.046 5.406h60.1747c4.521 4.033 10.092 6.342 16.046 6.342 6.731 0 13.069-2.812 17.838-7.921 1.968-2.109 1.968-5.531 0-7.645-1.968-2.109-5.162-2.109-7.135 0-5.702 6.109-15.583 6.131-21.325.081v-12.473zm-50.4608 64.8806c-32.3455 0-70.6453 43.957-70.6453 81.101 0 2.985 2.2607 5.407 5.046 5.407 2.7856 0 5.0462-2.422 5.0462-5.406 0-30.872 33.9602-70.287 60.553-70.287 2.7855 0 5.046-2.422 5.046-5.406s-2.2605-5.406-5.046-5.406z"/><path id="path8" d="M342.122 254.3594c-5.1975 0-11.4042.3244-17.6462 1.0814-6.797-13.3276-15.759-24.7952-27.0722-34.0786l-36.342-26.466c-6.0048-4.9416-15.4814-10.824-26.4717-10.824h-39.244c-9.709 0-19.256 3.5413-26.745 9.851l-35.716 27.8824c-37.225 31.359-49.008 86.3128-28.006 130.6695 7.635 16.139 20.396 35.642 37.846 36.907 1.362.109 2.75.163 4.137.163h98.197c7.407 9.867 18.746 16.22 31.462 16.22 14.623 0 27.42-8.412 34.505-20.924 9.017 3.001 20.073 4.704 31.094 4.704 24.271 0 50.461-8.272 50.461-21.627V338.18h-.404c.252-.8813.403-1.784.403-2.7033V273.294c0-14.9497-31.72-18.9344-50.461-18.9344zm39.9852 18.8695c-.101.118-.1918.232-.338.356-.202.162-.439.346-.7066.53-.333.227-.7367.465-1.1757.702-.354.194-.732.394-1.161.595-.53.254-1.161.508-1.797.767-.505.205-1.03.411-1.615.621-.737.254-1.585.513-2.437.767-.666.2-1.322.405-2.059.595-.959.259-2.044.486-3.119.724-.808.178-1.585.362-2.463.529-1.211.227-2.564.422-3.901.616-.909.135-1.766.286-2.735.405-1.59.195-3.341.324-5.087.465-.888.065-1.695.162-2.624.216-2.755.162-5.672.27-8.78.27-3.109 0-6.035-.109-8.79-.271-.929-.054-1.736-.146-2.624-.217-1.746-.146-3.497-.281-5.087-.47-.974-.119-1.827-.271-2.74-.406-1.338-.195-2.69-.39-3.901-.617-.878-.162-1.65-.352-2.463-.53-1.075-.238-2.155-.471-3.114-.719-.742-.195-1.393-.395-2.069-.595-.848-.26-1.691-.519-2.432-.779-.586-.217-1.11-.422-1.615-.628-.646-.26-1.272-.514-1.801-.768-.424-.2-.797-.4-1.161-.595-.434-.243-.838-.487-1.171-.703-.268-.184-.505-.357-.707-.53-.131-.108-.202-.216-.303-.324.05-.054.101-.108.166-.162.192-.173.454-.362.722-.541.403-.292.918-.595 1.513-.919.333-.179.656-.352 1.04-.53.393-.19.858-.379 1.312-.573.545-.228 1.14-.455 1.766-.682.454-.162.898-.325 1.403-.487 1.13-.379 2.371-.736 3.724-1.082.625-.162 1.352-.313 2.033-.465.818-.189 1.665-.378 2.553-.5403.984-.195 2.028-.379 3.108-.541 5.687-.919 12.494-1.568 20.613-1.568 23.847 0 37.189 5.272 40.015 8.056zm-76.9528 44.486c.454.205.9284.4 1.4028.595.878.378 1.7762.719 2.7047 1.059.489.178.968.351 1.463.519 1.07.357 2.17.686 3.28 1.005.403.108.777.238 1.175.34 1.529.411 3.093.789 4.693 1.124.338.07.686.124 1.024.194 1.287.27 2.588.503 3.91.713.57.092 1.14.162 1.716.249 1.13.162 2.271.308 3.431.432l1.816.194c1.186.108 2.381.2 3.582.27.535.038 1.069.081 1.604.108 1.725.081 3.446.135 5.162.135 1.715 0 3.441-.054 5.167-.141.545-.027 1.09-.07 1.635-.108 1.185-.07 2.371-.162 3.552-.271.621-.054 1.241-.119 1.857-.189 1.135-.13 2.261-.271 3.381-.433.585-.087 1.17-.162 1.751-.26 1.302-.205 2.583-.443 3.85-.703.353-.065.721-.124 1.08-.2 1.594-.34 3.154-.713 4.672-1.119.424-.108.827-.243 1.246-.362 1.095-.308 2.17-.632 3.209-.984.505-.173.999-.351 1.494-.53.918-.335 1.817-.686 2.69-1.048.469-.195.938-.395 1.392-.595.909-.416 1.766-.849 2.599-1.298.262-.135.555-.254.807-.395l.036 19.053c-1.186 3.082-14.23 9.932-34.798 11.03-1.847.07-3.634.162-5.627.162-11.112 0-22.092-1.822-30.479-5.028l-.101-.162c-.59-1.119-1.221-2.206-1.902-3.255-.101-.162-.217-.303-.323-.46-.636-.946-1.287-1.871-1.988-2.758-.212-.27-.439-.508-.656-.773-.621-.757-1.247-1.492-1.918-2.195-.338-.357-.707-.681-1.06-1.027-.585-.579-1.16-1.152-1.766-1.687l-.177-.1628.015-12.722c.252.146.565.27.827.411.832.443 1.68.865 2.573 1.276zm-66.659 60.998h-91.6267c-1.1606 0-2.3212-.044-3.4717-.125-9.9156-.719-20.4013-11.733-29.5196-31.008-18.832-39.772-8.21-89.103 25.0942-117.164l35.7162-27.877c5.8686-4.936 13.2056-7.656 20.6586-7.656H234.59c8.1644 0 15.562 4.671 20.5728 8.775l36.342 26.466c9.0223 7.418 16.551 16.49 22.4247 27.034-6.3884 1.416-12.5648 3.568-16.8035 6.726-.121.081-.237.162-.3532.254-.641.497-1.2262 1.027-1.766 1.568-.2222.238-.424.476-.631.719-.4036.47-.787.946-1.1 1.46-.2623.411-.454.865-.656 1.297-.1765.405-.3885.789-.5146 1.211-.2776.919-.4542 1.871-.4542 2.887v49.147c-1.6955-.747-3.4565-1.341-5.263-1.828l-.7065-.195c-1.766-.444-3.5726-.779-5.4145-.963-.2018-.022-.4137-.016-.6206-.032-1.0294-.087-2.069-.163-3.1286-.163-.555 0-1.085.054-1.635.081-.4288.016-.8578.038-1.2867.07-1.791.14-3.567.362-5.298.746-.03 0-.06 0-.101.016-.131.027-.252.086-.393.119-1.579.378-3.118.865-4.622 1.438-.545.205-1.09.411-1.624.638-1.498.649-2.962 1.351-4.37 2.184-.529.308-1.024.665-1.539 1-.984.649-1.942 1.319-2.866 2.054-.545.421-1.095.838-1.614 1.297-1.191 1.027-2.321 2.119-3.391 3.287-.469.508-.898 1.049-1.342 1.584-.757.909-1.478 1.855-2.159 2.828-.373.524-.757 1.027-1.11 1.568-.888 1.395-1.68 2.855-2.412 4.352-.282.584-.54 1.178-.807 1.784-.57 1.319-1.085 2.671-1.534 4.066-.131.405-.292.789-.403 1.2-.524 1.768-.908 3.606-1.211 5.461-.035.243-.116.47-.151.703-.04.297-.04.611-.075.903-.161 1.27-.262 2.557-.318 3.86-.02.47-.061.93-.065 1.406 0 .194-.03.389-.03.595 0 .854.081 1.692.126 2.541.202 4.666.909 9.353 2.221 13.668zm38.0275 16.22c-16.577 0-30.065-14.35-30.257-32.062 0-.417.01-.833.025-1.255.02-.595.05-1.19.091-1.774.035-.498.091-.99.151-1.482.05-.503.126-1 .201-1.492.232-1.406.525-2.795.923-4.142l.151-.422c.424-1.352.933-2.682 1.524-3.963l.166-.363c2.725-5.72 7.014-10.554 12.211-13.733l.06-.043c1.181-.719 2.422-1.325 3.684-1.866.328-.141.656-.271.989-.39 1.12-.433 2.26-.8 3.431-1.081.166-.033.318-.092.479-.125 1.463-.325 2.927-.487 4.38-.584.278-.016.555-.038.838-.044 1.488-.054 2.977-.011 4.44.173l.242.043c1.544.205 3.078.541 4.577 1l.065.016c1.549.487 3.068 1.103 4.551 1.855 1.362.703 2.689 1.47 3.936 2.362l.201.151c.172.13.333.27.505.406.838.649 1.64 1.325 2.412 2.055.187.173.369.357.555.541.767.757 1.504 1.568 2.195 2.406l.212.248c1.605 2 2.987 4.217 4.097 6.596.252.54.504 1.081.736 1.638.384.946.717 1.903 1.009 2.865l.075.217c.303.973.535 1.973.737 2.974l.05.233c.202.995.338 2 .444 3.011l.0402.27c.101 1.098.162 2.206.162 3.325 0 1.147-.061 2.287-.171 3.423-.015.173-.051.324-.071.497-.111.9734-.2524 1.947-.444 2.909l-.076.3244c-.217 1.0275-.474 2.0385-.787 3.044l-.0504.13c-.328 1.049-.7063 2.082-1.1453 3.1036-4.804 11.186-15.33 19.01-27.551 19.01zm65.599-16.22c-9.578 0-19.11-1.368-26.946-3.817.01-.011.01-.022.01-.033.489-1.752.847-3.558 1.13-5.396.065-.433.131-.865.186-1.314.227-1.86.388-3.731.388-5.661 0-1.406-.071-2.79-.202-4.163-.041-.503-.121-.984-.182-1.476-.086-.703-.152-1.406-.263-2.087 7.655 1.514 16.551 2.314 25.876 2.314 12.06 0 29.494-1.649 40.389-6.813l.03 17.247c-1.292 3.341-16.602 11.192-40.419 11.192zm0-64.881c-23.732 0-39.007-7.786-40.344-10.781l.01-17.626.403.162c1.211.551 2.472 1.07 3.809 1.546l.217.075c1.372.475 2.826.903 4.299 1.297.484.129.984.248 1.478.367 1.08.27 2.17.519 3.28.746l1.625.325c1.226.232 2.457.432 3.703.632.388.054.777.13 1.17.189 1.63.232 3.26.432 4.879.605.404.043.807.075 1.211.108 1.246.124 2.473.232 3.699.324l1.564.097c1.13.07 2.23.124 3.32.162.464.022.923.043 1.372.054 1.479.054 2.927.076 4.289.076 1.352 0 2.795-.027 4.274-.07l1.383-.054c1.08-.044 2.17-.098 3.3-.163l1.584-.108c1.221-.087 2.457-.195 3.704-.325.403-.033.797-.065 1.201-.108 1.624-.173 3.254-.379 4.884-.611.404-.054.792-.13 1.191-.19 1.241-.189 2.472-.4 3.694-.632l1.624-.325c1.11-.233 2.21-.487 3.295-.757.494-.119.989-.233 1.473-.362 1.514-.4 2.978-.833 4.38-1.32l.202-.076c1.312-.465 2.564-.973 3.749-1.514.141-.07.303-.124.454-.189l.025 17.236c-1.297 3.352-16.612 11.208-40.419 11.208z"/></g></svg>