<svg xmlns="http://www.w3.org/2000/svg" viewBox="0 0 800 600" id="svg2"><path d="M259.5763 491.3938c-7.56 4.38-16.91 4.38-24.47 0l-193.02-111.45c-7.56-4.35-12.23-12.44-12.23-21.18v-222.86c0-8.74 4.67-16.83 12.23-21.18l193.02-111.43c7.57-4.39 16.9-4.39 24.47 0l193.01 111.43c7.56 4.35 12.23 12.44 12.23 21.18v222.86c0 8.74-4.66 16.83-12.23 21.18l-193.01 111.44z" id="Chemin#1" fill="#ffffff" stroke="#ffa810" stroke-width="4"/><path d="M258.0743 463.5087c-6.724 3.9064-15.04 3.9064-21.764 0L64.6363 364.111c-6.724-3.8797-10.8775-11.095-10.8775-18.8897v-198.76c0-7.7948 4.1535-15.01 10.8775-18.8896l171.6744-99.38c6.733-3.9152 15.031-3.9152 21.764 0l171.6653 99.38c6.724 3.8796 10.8775 11.0948 10.8775 18.8896v198.76c0 7.795-4.1446 15.01-10.8775 18.8896l-171.6654 99.388z" id="Chemin#2" fill="#ffa810" stroke="#ffa810" stroke-width="4" stroke-opacity="0"/><path d="M392.1018 123.751c-1.5994-.9116-3.5934-.9517-5.241-.1352l-88.146 43.8497-88.141-43.8547c-.0692-.035-.1492-.05-.2132-.075-.2666-.1103-.5225-.2005-.789-.2706-.1493-.04-.2933-.0852-.4426-.1152-.2932-.05-.5864-.075-.8957-.0852-.1386 0-.2665-.02-.4105-.015-.288.015-.5705.065-.853.1252-.16.03-.32.05-.48.1002-.032 0-.0692 0-.1065.015l-95.9675 30.0547c-2.1646.686-3.636 2.599-3.636 4.753V373.49c0 1.603.821 3.1207 2.2178 4.0674.917.6162 2.01.9418 3.1136.9418.565 0 1.1356-.0852 1.6847-.2605l94.08-29.4637 88.807 34.3626c.069.025.16.015.229.04.586.2005 1.183.3307 1.796.3307.48 0 .959-.075 1.418-.2004.149-.035.288-.1.437-.15.213-.076.437-.131.64-.231l90.636-45.082c1.743-.867 2.836-2.575 2.836-4.428V128.044c0-1.7533-.981-3.3863-2.581-4.293zm-274.659 37.954l85.3044-26.6985v135.196c-2.2925.3906-4.553.8314-6.739 1.3724-2.847.711-4.5425 3.456-3.7854 6.126.6397 2.244 2.7883 3.726 5.1502 3.726.448 0 .9064-.05 1.3702-.161 1.2796-.321 2.6658-.481 3.9987-.742v59.308l-85.3 26.703v-204.82zm95.9675 117.4136c1.706-.1252 3.3695-.3306 5.1182-.3657 2.9484-.06 5.2783-2.355 5.225-5.11-.064-2.735-2.4366-4.909-5.3316-4.909h-.118c-1.653.035-3.279.12-4.895.225v-132.59l79.973 39.772v106.163c-3.807-.15-7.678-.576-11.73-1.313-2.906-.536-5.694 1.252-6.254 3.957-.56 2.705 1.333 5.35 4.222 5.876 4.718.861 9.303 1.282 13.755 1.452v78.743l-79.968-30.941v-60.961zm170.609 51.2783l-79.973 39.772v-78.443c1.9833-.842 3.3055-2.745 3.1296-4.909-.16-1.869-1.44-3.371-3.13-4.108V176.141l79.973-39.7723v194.028z" id="chemin_4" fill="#ffffff"/><path d="M167.9248 169.1695c-13.5847 0-24.6367 10.5526-24.6367 23.5235 0 11.362 8.475 20.8607 19.71 23.053v9.88c0 2.6017 2.208 4.7047 4.928 4.7047 2.72 0 4.928-2.103 4.928-4.7047v-9.88c11.235-2.1923 19.71-11.691 19.71-23.053 0-12.971-11.052-23.5235-24.636-23.5235zm0 37.6376c-8.1498 0-14.782-6.332-14.782-14.114 0-7.781 6.6322-14.114 14.782-14.114 8.1498 0 14.782 6.333 14.782 14.114 0 7.782-6.6322 14.114-14.782 14.114zm167.8742 50.214c.5912.221 1.1973.32 1.7935.32 1.971 0 3.8285-1.129 4.5923-2.987 2.3158-5.645 4.1734-12.011 5.5334-18.931.4927-2.54-1.2664-5.001-3.942-5.485-2.6902-.423-5.2475 1.209-5.75 3.764-1.2418 6.342-2.9318 12.139-5.026 17.234-.9854 2.4137.2612 5.147 2.7938 6.0975zm-158.9804 21.966c-5.9473 3.562-11.3082 8.022-15.94 13.268-1.754 1.986-1.488 4.954.5914 6.634.9263.739 2.0547 1.101 3.1732 1.101 1.4043 0 2.7938-.565 3.7694-1.67 3.9665-4.493 8.5538-8.318 13.634-11.352 2.306-1.383 3.0056-4.281 1.557-6.492-1.4438-2.197-4.484-2.87-6.79-1.482zm-20.5864 27.918c-2.4735-1.082-5.4003-.061-6.5385 2.306-5.0555 10.468-6.307 18.923-6.3563 19.28-.3745 2.574 1.5078 4.94 4.203 5.293.2267.028.4583.047.68.047 2.4242 0 4.533-1.707 4.878-4.055.0148-.075 1.1432-7.513 5.5482-16.626 1.1333-2.367.059-5.157-2.4144-6.248zm156.6695-21.387c.7538 0 1.5274-.169 2.237-.517 6.366-3.105 11.9734-7.527 16.674-13.107 1.7098-2.023 1.3698-4.987-.7538-6.614-2.119-1.614-5.223-1.2982-6.928.7248-3.819 4.5496-8.352 8.1205-13.472 10.6187-2.424 1.176-3.385 4.013-2.144 6.328.887 1.623 2.611 2.5593 4.4 2.5593zm-55.4473-10.811c-2.168-.87-3.449-1.472-3.528-1.515-.3202-.155-.6602-.282-1.01-.367-5.3413-1.307-10.5938-2.343-15.6394-3.076-2.6854-.404-5.2033 1.365-5.6172 3.938-.409 2.569 1.4388 4.973 4.129 5.364 4.5628.668 9.3276 1.5994 14.176 2.7756.6652.301 1.9217.8705 3.6955 1.5715.616.2448 1.2615.3577 1.892.3577 1.9218 0 3.7597-1.082 4.548-2.8885 1.0496-2.409-.133-5.166-2.646-6.1636zm87.475-54.113c.1083.009.2118.014.3202.014 2.577 0 4.745-1.91 4.9125-4.408.306-4.516.459-9.306.459-14.208 0-1.632-.015-3.293-.049-4.977-.049-2.602-2.414-4.5774-5.016-4.62-2.72.047-4.888 2.1926-4.838 4.7896.03 1.6328.05 3.237.05 4.8085 0 4.7047-.148 9.2824-.443 13.6107-.167 2.588 1.892 4.8227 4.607 4.987zm-190.343 41.293c.961.918 2.2174 1.379 3.4837 1.379 1.267 0 2.523-.461 3.484-1.378l6.371-6.083 6.371 6.083c.961.918 2.218 1.379 3.484 1.379 1.267 0 2.523-.461 3.484-1.3782 1.922-1.8343 1.922-4.8124 0-6.652l-6.371-6.083 6.371-6.0834c1.922-1.835 1.922-4.813 0-6.6524-1.921-1.8394-5.04-1.835-6.967 0l-6.371 6.083-6.371-6.083c-1.921-1.835-5.04-1.835-6.967 0-1.926 1.835-1.921 4.813 0 6.6526l6.371 6.083-6.371 6.083c-1.921 1.835-1.921 4.813 0 6.6525z" id="Chemin#3" fill="#ffffff"/></svg>