<svg xmlns="http://www.w3.org/2000/svg" viewBox="0 0 800 600">

<path d="M259.5763 491.3938c-7.56 4.38-16.91 4.38-24.47 0l-193.02-111.45c-7.56-4.35-12.23-12.44-12.23-21.18v-222.86c0-8.74 4.67-16.83 12.23-21.18l193.02-111.43c7.57-4.39 16.9-4.39 24.47 0l193.01 111.43c7.56 4.35 12.23 12.44 12.23 21.18v222.86c0 8.74-4.66 16.83-12.23 21.18l-193.01 111.44z" id="Chemin#1" fill="#ffffff" stroke="#eb2d40" stroke-width="4"/>

<path d="M258.0743 463.5087c-6.724 3.9064-15.04 3.9064-21.764 0L64.6363 364.111c-6.724-3.8797-10.8775-11.095-10.8775-18.8897v-198.76c0-7.7948 4.1535-15.01 10.8775-18.8896l171.6744-99.38c6.733-3.9152 15.031-3.9152 21.764 0l171.6653 99.38c6.724 3.8796 10.8775 11.0948 10.8775 18.8896v198.76c0 7.795-4.1446 15.01-10.8775 18.8896l-171.6654 99.388z" id="Chemin#2" fill="#eb2d40" stroke="#eb2d40" stroke-width="4"/>

<path d="M297.92 129.2628l-47.8777-24.8424c-1.8638-.9677-4.1426-.9677-6.0096 0l-47.8776 24.8424c-2.428 1.2602-3.63 3.8738-2.923 6.3598.706 2.4872 3.142 4.221 5.928 4.221h95.756c2.786 0 5.223-1.7344 5.93-4.2216.707-2.4872-.495-5.1002-2.924-6.3604zm-75.3606-.7266l24.4784-12.7 24.479 12.7017h-48.958z" id="Chemin#3" fill="#ffffff"/>

<path d="M378.5553 333.6963h-5.824v-19.251c0-3.4372-2.64-6.224-5.8945-6.224H353.955v-14.189c0-3.0976-2.2578-5.6345-5.1293-5.8886l-2.2308-80.1228h1.76c3.093 0 5.6-2.646 5.6-5.912v-14.191h12.882c3.255 0 5.894-2.788 5.894-6.224v-19.25h5.824c2.68 0 5.023-1.909 5.702-4.648.679-2.737-.477-5.614-2.813-7.002L249.992 72.718c-1.794-1.0656-3.986-1.0656-5.78 0L112.76 150.7933c-2.336 1.3873-3.4915 4.2643-2.8124 7.0026.6785 2.737 3.0212 4.647 5.7015 4.647h5.824v19.25c0 3.436 2.639 6.223 5.895 6.223h12.884v14.189c0 3.266 2.506 5.9136 5.599 5.9136h1.76l-2.23 80.123c-2.8716.253-5.129 2.79-5.129 5.8886v14.189h-12.883c-3.2552 0-5.894 2.786-5.894 6.2233v19.251h-5.824c-3.256 0-5.8945 2.787-5.8945 6.225v25.4746c0 3.436 2.64 6.2235 5.895 6.2235h262.905c3.2563 0 5.895-2.787 5.895-6.224v-25.475c0-3.436-2.6387-6.222-5.894-6.222zM247.1026 85.2853l108.9497 64.7104H138.153l108.9496-64.7105zm-113.8392 90.185v-13.0265h227.6783v13.0264H133.2634zm209.4904 124.785v7.9654h-27.4186v-7.965h27.4186zm-21.6865-12.4487l2.213-79.4754h11.5284l1.6725 60.085.5394 19.3898h-15.9533zm21.2962-91.6127c-.5765-.199-1.192-.312-1.831-.312H317.556c-.6398 0-1.254.111-1.831.311h-.391v-8.277h27.4186v8.277h-.3902zm-75.4815 91.949l-.558-20.092-1.671-60.031h1.76c3.0933 0 5.6-2.647 5.6-5.913v-14.189h32.1223v14.189c0 3.266 2.507 5.913 5.6 5.913h1.7597l-2.2315 80.122c-2.8716.253-5.1278 2.79-5.1278 5.8874v14.189h-32.123l.0002-14.189c0-3.0983-2.257-5.635-5.13-5.8887zm-6.07 12.112v7.965h-27.418v-7.965h27.4185zm-21.685-12.448l2.212-79.476h11.5295l2.212 79.475H239.128zm21.2946-91.613c-.5764-.199-1.192-.312-1.831-.312h-22.976c-.6396 0-1.2527.111-1.831.311h-.3907v-8.277h27.42v8.277h-.391zm-75.4803 91.949l-2.2307-80.123h1.76c3.0934 0 5.6002-2.647 5.6002-5.913v-14.189h32.1228v14.189c0 3.266 2.5068 5.913 5.6 5.913h1.7597l-2.231 80.123c-2.8717.253-5.129 2.789-5.129 5.888v14.189H190.07v-14.189c0-3.099-2.2562-5.636-5.1294-5.889zm-6.07 12.111v7.965h-27.419v-7.965h27.4185zm-21.685-12.447l2.212-79.475h11.528l2.2117 79.475h-15.952zm21.294-91.612c-.5765-.199-1.1918-.312-1.831-.312h-22.976c-.6398 0-1.253.111-1.831.311h-.3903v-8.277h27.418v8.277h-.3904zm-45.216 124.475h227.678v13.026h-227.679v-13.028zm239.3967 38.501H121.545v-13.028h251.116v13.027z" id="Chemin#4" fill="#ffffff"/>

</svg>