<svg xmlns="http://www.w3.org/2000/svg">
	<symbol id="museum" viewBox="0 0 512 512">
		<path d="M335.444 93.144l-74.753-42.05c-2.91-1.638-6.468-1.638-9.383 0l-74.753 42.05c-3.792 2.133-5.668 6.557-4.565 10.765 1.102 4.21 4.905 7.145 9.256 7.145h149.506c4.35 0 8.155-2.936 9.258-7.146 1.103-4.21-.773-8.633-4.566-10.766zm-117.663-1.23L256 70.417l38.22 21.5h-76.44z"/><path d="M493.126 447.216H482.62v-32.888c0-5.872-4.762-10.633-10.633-10.633H448.75v-24.24c0-5.292-4.073-9.626-9.253-10.06l-4.024-136.88h3.175c5.58 0 10.102-4.52 10.102-10.1v-24.242h23.238c5.872 0 10.633-4.762 10.633-10.633v-32.887h10.507c4.835 0 9.062-3.26 10.287-7.94 1.225-4.676-.86-9.59-5.074-11.962L261.214 1.367c-3.236-1.82-7.19-1.82-10.426 0L13.662 134.75c-4.214 2.37-6.298 7.285-5.073 11.963 1.224 4.677 5.45 7.94 10.285 7.94H29.38v32.886c0 5.87 4.76 10.632 10.633 10.632h23.24v24.24c0 5.58 4.52 10.103 10.1 10.103h3.175l-4.024 136.88c-5.18.432-9.252 4.766-9.252 10.06v24.24h-23.24c-5.872 0-10.632 4.76-10.632 10.632v32.888H18.874c-5.873 0-10.633 4.76-10.633 10.633v43.52c0 5.87 4.762 10.632 10.634 10.632h474.25c5.874 0 10.634-4.762 10.634-10.633v-43.52c0-5.87-4.76-10.63-10.632-10.63zM256 22.836l196.533 110.55H59.467L256 22.836zM50.647 176.906v-22.254h410.706v22.254H50.647zm377.897 213.18v13.608h-49.46v-13.607h49.46zm-39.12-21.267l3.992-135.774h20.796l3.017 102.648.973 33.125h-28.778zM427.84 212.31c-1.04-.34-2.15-.532-3.303-.532H383.09c-1.154 0-2.262.19-3.303.532h-.705v-14.14h49.46v14.14h-.704zM291.68 369.395l-1.007-34.325-3.015-102.554h3.175c5.58 0 10.102-4.522 10.102-10.102v-24.24h57.945v24.24c0 5.58 4.522 10.102 10.102 10.102h3.174l-4.025 136.88c-5.18.432-9.25 4.766-9.25 10.058v24.24h-57.946v-24.24c0-5.293-4.07-9.627-9.253-10.06zm-10.95 20.692v13.607h-49.46v-13.607h49.46zm-39.118-21.265l3.99-135.774H266.4l3.99 135.774h-28.776zm38.413-156.51c-1.04-.34-2.15-.532-3.303-.532h-41.446c-1.154 0-2.26.19-3.303.532h-.705v-14.14h49.463v14.14h-.705zM143.867 369.396l-4.024-136.88h3.175c5.58 0 10.102-4.522 10.102-10.102v-24.24h57.946v24.24c0 5.58 4.522 10.102 10.102 10.102h3.174l-4.024 136.88c-5.18.432-9.252 4.766-9.252 10.06v24.24H153.12v-24.24c0-5.294-4.07-9.627-9.253-10.06zm-10.95 20.69v13.608h-49.46v-13.607h49.46zM93.8 368.822l3.99-135.773h20.795l3.99 135.774H93.8zm38.412-156.508c-1.04-.34-2.15-.532-3.303-.532H87.463c-1.154 0-2.26.19-3.303.532h-.704v-14.14h49.46v14.14h-.704zm-81.565 212.65h410.706v22.254H50.647V424.96zm431.845 65.773H29.508V468.48h452.985v22.255z"/>
	</symbol>
	<symbol id="map" viewBox="0 0 54 54">
		<path d="M53.516 1.143c-.3-.182-.674-.19-.983-.027L36 9.87 19.468 1.115c-.013-.007-.028-.01-.04-.015-.05-.022-.098-.04-.148-.054-.028-.008-.055-.017-.083-.023-.055-.01-.11-.015-.168-.017-.026 0-.05-.004-.077-.003-.054.003-.107.013-.16.025-.03.006-.06.01-.09.02-.006 0-.013 0-.02.003l-18 6C.276 7.188 0 7.57 0 8v43c0 .32.154.623.416.812.172.123.377.188.584.188.106 0 .213-.017.316-.052l17.646-5.882 16.657 6.86c.013.005.03.003.043.008.11.04.222.066.337.066.09 0 .18-.015.266-.04.028-.007.054-.02.082-.03.04-.015.082-.026.12-.046l17-9c.327-.173.532-.514.532-.884V2c0-.35-.184-.676-.484-.857zM2 8.72L18 3.39V30.38c-.43.078-.854.166-1.264.274-.534.142-.852.69-.71 1.223.12.448.523.744.966.744.084 0 .17-.01.257-.032.24-.064.5-.096.75-.148v11.84L2 49.612V8.722zm18 23.44c.32-.025.632-.066.96-.073.553-.012.99-.47.98-1.02-.012-.546-.457-.98-1-.98h-.022c-.31.007-.615.024-.918.045V3.662l15 7.94v21.194c-.714-.03-1.44-.115-2.2-.262-.545-.107-1.068.25-1.173.79s.25 1.068.792 1.173c.885.172 1.745.256 2.58.29v15.72L20 44.33V32.16zm32 10.237l-15 7.94v-15.66c.372-.168.62-.548.587-.98-.03-.373-.27-.673-.587-.82V11.602l15-7.94v38.735z"/><path d="M11 9c-2.757 0-5 2.243-5 5 0 2.415 1.72 4.434 4 4.9V21c0 .553.448 1 1 1s1-.447 1-1v-2.1c2.28-.466 4-2.485 4-4.9 0-2.757-2.243-5-5-5zm0 8c-1.654 0-3-1.346-3-3s1.346-3 3-3 3 1.346 3 3-1.346 3-3 3zM45.07 27.673c.12.047.243.068.364.068.4 0 .777-.24.932-.635.47-1.2.847-2.553 1.123-4.024.1-.54-.257-1.063-.8-1.166-.546-.09-1.065.257-1.167.8-.252 1.348-.595 2.58-1.02 3.663-.2.513.053 1.094.567 1.296zM12.805 32.342c-1.207.757-2.295 1.705-3.235 2.82-.356.422-.302 1.053.12 1.41.188.157.417.234.644.234.285 0 .567-.12.765-.355.805-.955 1.736-1.768 2.767-2.413.468-.294.61-.91.316-1.38-.293-.467-.91-.61-1.378-.315zM8.627 38.276c-.502-.23-1.096-.013-1.327.49-1.026 2.225-1.28 4.022-1.29 4.098-.076.547.306 1.05.853 1.125.046.006.093.01.138.01.492 0 .92-.363.99-.862.003-.016.232-1.597 1.126-3.534.23-.503.012-1.096-.49-1.328zM40.423 33.73c.153 0 .31-.036.454-.11 1.292-.66 2.43-1.6 3.384-2.786.347-.43.278-1.06-.153-1.406-.43-.343-1.06-.276-1.406.154-.775.967-1.695 1.726-2.734 2.257-.492.25-.687.853-.435 1.345.18.345.53.544.893.544zM29.17 31.432c-.44-.185-.7-.313-.716-.322-.065-.033-.134-.06-.205-.078-1.084-.278-2.15-.498-3.174-.654-.545-.086-1.056.29-1.14.837-.083.546.292 1.057.838 1.14.926.142 1.893.34 2.877.59.135.064.39.185.75.334.125.052.256.076.384.076.39 0 .763-.23.923-.614.213-.512-.027-1.098-.537-1.31zM46.923 19.93c.022.002.043.003.065.003.523 0 .963-.406.997-.937.062-.96.093-1.978.093-3.02 0-.347-.003-.7-.01-1.058-.01-.553-.49-.973-1.018-.982-.552.01-.992.466-.982 1.018.006.347.01.688.01 1.022 0 1-.03 1.973-.09 2.893-.034.55.384 1.025.935 1.06zM8.293 28.707c.195.195.45.293.707.293s.512-.098.707-.293L11 27.414l1.293 1.293c.195.195.45.293.707.293s.512-.098.707-.293c.39-.39.39-1.023 0-1.414L12.414 26l1.293-1.293c.39-.39.39-1.023 0-1.414s-1.023-.39-1.414 0L11 24.586l-1.293-1.293c-.39-.39-1.023-.39-1.414 0s-.39 1.023 0 1.414L9.586 26l-1.293 1.293c-.39.39-.39 1.023 0 1.414z"/>
	</symbol>
	<symbol id="scenario" viewBox="0 0 490 490">
		<path d="M413.435 68.9l-22.84-.13h-.043c-.043 0-.084.007-.126.007v-15.19c0-4.228-3.427-7.656-7.655-7.656h-22.965V30.623c0-4.228-3.427-7.655-7.655-7.655H161.57C160.596 10.14 149.856 0 136.785 0 123.713 0 112.975 10.14 112 22.966H76.554c-4.228 0-7.655 3.427-7.655 7.655v390.427c0 4.228 3.426 7.655 7.654 7.655h15.31v22.966c0 4.228 3.427 7.655 7.655 7.655h15.31v22.966c0 4.227 3.427 7.654 7.655 7.654H413.39c4.23 0 7.656-3.427 7.656-7.655V76.553c.002-4.21-3.4-7.632-7.61-7.655zm-276.65-53.59c4.618 0 8.48 3.295 9.363 7.656h-18.726c.882-4.36 4.744-7.655 9.363-7.655zM84.21 413.393V38.277h27.71V93.7c0 13.71 11.155 24.865 24.865 24.865 13.71 0 24.864-11.155 24.864-24.865V59.282c0-4.228-3.428-7.655-7.657-7.655-4.228 0-7.655 3.427-7.655 7.655V93.7c0 5.268-4.286 9.554-9.554 9.554s-9.553-4.286-9.553-9.554V38.277h217.262v375.115H84.21zm22.964 30.622v-15.31H352.15c4.228 0 7.655-3.428 7.655-7.656V61.243h15.31v382.77h-267.94zm22.968 30.622v-15.31H382.77c4.228 0 7.655-3.428 7.655-7.656V84.078c.03 0 .056.005.085.005l15.226.085v390.468H130.142z"/><path d="M267.94 168.42H160.762c-4.228 0-7.656 3.426-7.656 7.655 0 4.227 3.428 7.655 7.656 7.655H267.94c4.228 0 7.655-3.427 7.655-7.655s-3.427-7.656-7.655-7.656zM267.94 199.04H160.762c-4.228 0-7.656 3.428-7.656 7.657 0 4.227 3.428 7.655 7.656 7.655H267.94c4.228 0 7.655-3.427 7.655-7.655s-3.427-7.656-7.655-7.656zM237.317 229.662h-45.933c-4.228 0-7.655 3.427-7.655 7.656 0 4.228 3.426 7.655 7.654 7.655h45.933c4.228 0 7.655-3.427 7.655-7.655s-3.426-7.656-7.655-7.656z"/>
	</symbol>
	<symbol id="rich" viewBox="0 0 60 60">
		<path d="M16.586 10.028c.407 1.178 1.504 1.97 2.73 1.97h7.43c1.227 0 2.324-.792 2.73-1.97.39-1.126 1.608-3.645 2.554-4.445.83-.703 1.218-1.792 1.014-2.842-.2-1.032-.92-1.848-1.928-2.18-3-.996-5.663-.66-7.698.966-.365.292-.855.292-1.22 0C20.163-.1 17.503-.434 14.5.56c-1.007.333-1.73 1.148-1.93 2.182-.203 1.05.186 2.14 1.015 2.842 1.07.906 2.71 3.604 3 4.444zm-2.05-6.905c.035-.187.16-.52.593-.664.93-.31 1.796-.462 2.598-.462 1.234 0 2.312.364 3.22 1.09 1.096.878 2.626.876 3.72 0 1.5-1.2 3.457-1.41 5.82-.63.43.144.556.48.592.665.067.347-.06.696-.343.935-1.528 1.294-2.894 4.576-3.15 5.32-.128.37-.466.62-.84.62h-7.43c-.374 0-.71-.25-.84-.62-.416-1.21-2.27-4.195-3.598-5.32-.284-.24-.413-.59-.345-.935zM31.532 13.998c0-.552-.448-1-1-1-.186 0-.35.065-.5.153-.15-.088-.314-.152-.5-.152h-12c-.552 0-1 .448-1 1s.448 1 1 1h12v1h-11c-.552 0-1 .448-1 1s.448 1 1 1h11.925c.896.746 2 1.173 3.18 1.173 1.334 0 2.59-.52 3.535-1.465.39-.39.39-1.023 0-1.414-.39-.39-1.023-.39-1.414 0-1.13 1.13-3.088 1.134-4.226.015v-2.307zM21.532 25.998c-6.41 0-14 8.13-14 15 0 .552.448 1 1 1s1-.448 1-1c0-5.71 6.73-13 12-13 .552 0 1-.448 1-1s-.448-1-1-1z"/>
		<path d="M49.532 31.998c-1.03 0-2.26.06-3.497.2-1.347-2.465-3.123-4.586-5.365-6.303L33.468 21c-1.19-.914-3.068-2.002-5.246-2.002h-7.777c-1.924 0-3.816.655-5.3 1.822l-7.078 5.157c-7.377 5.8-9.712 15.964-5.55 24.168 1.513 2.985 4.042 6.592 7.5 6.826.27.02.545.03.82.03h19.46c1.468 1.825 3.715 3 6.235 3 2.898 0 5.434-1.556 6.838-3.87 1.787.555 3.978.87 6.162.87 4.81 0 10-1.53 10-4v-5.5h-.08c.05-.163.08-.33.08-.5V35.5c0-2.765-6.286-3.502-10-3.502zm7.924 3.49c-.02.022-.038.043-.067.066-.04.03-.087.064-.14.098-.066.042-.146.086-.233.13-.07.036-.145.073-.23.11-.105.047-.23.094-.356.142-.1.038-.204.076-.32.115-.146.047-.314.095-.483.142-.132.037-.262.075-.408.11-.19.048-.405.09-.618.134-.16.033-.314.067-.488.098-.24.042-.508.078-.773.114-.18.025-.35.053-.542.075-.315.036-.662.06-1.008.086-.176.012-.336.03-.52.04-.546.03-1.124.05-1.74.05s-1.196-.02-1.742-.05c-.184-.01-.344-.027-.52-.04-.346-.027-.693-.052-1.008-.087-.193-.022-.362-.05-.543-.075-.265-.036-.533-.072-.773-.114-.174-.03-.327-.065-.488-.098-.213-.044-.427-.087-.617-.133-.147-.036-.276-.073-.41-.11-.168-.048-.335-.096-.482-.144-.116-.04-.22-.078-.32-.116-.128-.048-.252-.095-.357-.142-.084-.037-.158-.074-.23-.11-.086-.045-.166-.09-.232-.13-.053-.034-.1-.066-.14-.098-.026-.02-.04-.04-.06-.06.01-.01.02-.02.033-.03.038-.032.09-.067.143-.1.08-.054.182-.11.3-.17.066-.033.13-.065.206-.098.078-.035.17-.07.26-.106.108-.042.226-.084.35-.126.09-.03.178-.06.278-.09.224-.07.47-.136.738-.2.124-.03.268-.058.403-.086.162-.035.33-.07.506-.1.195-.036.402-.07.616-.1 1.127-.17 2.476-.29 4.085-.29 4.726 0 7.37.975 7.93 1.49zm-15.25 8.228c.09.038.184.074.278.11.174.07.352.133.536.196.097.033.192.065.29.096.212.066.43.127.65.186.08.02.154.044.233.063.303.076.613.146.93.208.067.013.136.023.203.036.255.05.513.093.775.132.113.017.226.03.34.046.224.03.45.057.68.08l.36.036c.235.02.472.037.71.05.106.007.212.015.318.02.342.015.683.025 1.023.025.34 0 .682-.01 1.024-.026.108-.005.216-.013.324-.02.235-.013.47-.03.704-.05.123-.01.246-.022.368-.035.225-.024.448-.05.67-.08.116-.016.232-.03.347-.048.258-.038.512-.082.763-.13.07-.012.143-.023.214-.037.316-.063.625-.132.926-.207.084-.02.164-.045.247-.067.217-.057.43-.117.636-.182.1-.032.198-.065.296-.098.182-.062.36-.127.533-.194.093-.036.186-.073.276-.11.18-.077.35-.157.515-.24.052-.025.11-.047.16-.073l.007 3.524c-.235.57-2.82 1.837-6.896 2.04-.366.013-.72.03-1.115.03-2.202 0-4.378-.337-6.04-.93l-.02-.03c-.117-.207-.242-.408-.377-.602-.02-.03-.043-.056-.064-.085-.126-.175-.255-.346-.394-.51-.042-.05-.087-.094-.13-.143-.123-.14-.247-.276-.38-.406-.067-.066-.14-.126-.21-.19-.116-.107-.23-.213-.35-.312l-.035-.03.003-2.353c.05.027.112.05.164.076.165.082.333.16.51.236zm-13.21 11.282H10.838c-.23 0-.46-.008-.688-.023-1.965-.133-4.043-2.17-5.85-5.735-3.732-7.356-1.627-16.48 4.973-21.67l7.078-5.156c1.163-.913 2.617-1.416 4.094-1.416h7.777c1.618 0 3.084.864 4.077 1.623l7.202 4.895c1.788 1.372 3.28 3.05 4.444 5-1.266.262-2.49.66-3.33 1.244-.024.015-.047.03-.07.047-.127.092-.243.19-.35.29-.044.044-.084.088-.125.133-.08.087-.156.175-.218.27-.052.076-.09.16-.13.24-.035.075-.077.146-.102.224-.055.17-.09.346-.09.534v9.09c-.336-.138-.685-.248-1.043-.338l-.14-.036c-.35-.082-.708-.144-1.073-.178-.04-.004-.082-.003-.123-.006-.204-.016-.41-.03-.62-.03-.11 0-.215.01-.324.015-.085.003-.17.007-.255.013-.355.026-.707.067-1.05.138-.006 0-.012 0-.02.003-.026.005-.05.016-.078.022-.313.07-.618.16-.916.266-.108.038-.216.076-.322.118-.297.12-.587.25-.866.404-.105.057-.203.123-.305.185-.195.12-.385.244-.568.38-.108.078-.217.155-.32.24-.236.19-.46.392-.672.608-.093.094-.178.194-.266.293-.15.168-.293.343-.428.523-.074.097-.15.19-.22.29-.176.258-.333.528-.478.805-.056.108-.107.218-.16.33-.113.244-.215.494-.304.752-.026.075-.058.146-.08.222-.104.327-.18.667-.24 1.01-.007.045-.023.087-.03.13-.008.055-.008.113-.015.167-.032.235-.052.473-.063.714-.004.087-.012.172-.013.26 0 .036-.006.072-.006.11 0 .158.016.313.025.47.04.863.18 1.73.44 2.528zm7.536 3c-3.285 0-5.958-2.654-5.996-5.93 0-.077.002-.154.005-.232.004-.11.01-.22.018-.328.007-.092.018-.183.03-.274.01-.093.025-.185.04-.276.046-.26.104-.517.183-.766l.03-.078c.084-.25.185-.496.302-.733l.033-.067c.54-1.058 1.39-1.952 2.42-2.54l.012-.008c.234-.133.48-.245.73-.345.065-.026.13-.05.196-.072.222-.08.448-.148.68-.2.033-.006.063-.017.095-.023.29-.06.58-.09.868-.108.055-.003.11-.007.166-.008.295-.01.59-.002.88.032l.048.008c.306.038.61.1.907.185l.013.003c.307.09.608.204.902.343.27.13.533.272.78.437l.04.028c.034.024.066.05.1.075.166.12.325.245.478.38.037.032.073.066.11.1.152.14.298.29.435.445l.042.046c.318.37.592.78.812 1.22.05.1.1.2.146.303.076.175.142.352.2.53l.015.04c.06.18.106.365.146.55l.01.043c.04.184.067.37.088.557l.008.05c.02.203.032.408.032.615 0 .212-.012.423-.034.633-.003.032-.01.06-.014.092-.022.18-.05.36-.088.538l-.015.06c-.043.19-.094.377-.156.563l-.01.024c-.065.194-.14.385-.227.574C41.04 56.553 38.954 58 36.532 58zm13-3c-1.898 0-3.787-.253-5.34-.706.002-.002.002-.004.002-.006.097-.324.168-.658.224-.998.013-.08.026-.16.037-.243.045-.344.077-.69.077-1.047 0-.26-.014-.516-.04-.77-.008-.093-.024-.182-.036-.273-.017-.13-.03-.26-.052-.386 1.517.28 3.28.428 5.128.428 2.39 0 5.845-.305 8.004-1.26l.006 3.19c-.256.618-3.29 2.07-8.01 2.07zm0-12c-4.703 0-7.73-1.44-7.995-1.994l.002-3.26.08.03c.24.102.49.198.755.286l.043.014c.272.088.56.167.852.24.096.024.195.046.293.068.214.05.43.096.65.138l.322.06c.243.043.487.08.734.117.077.01.154.024.232.035.323.043.646.08.967.112.08.008.16.014.24.02.247.023.49.043.733.06l.31.018c.224.013.442.023.658.03.092.004.183.008.272.01.293.01.58.014.85.014.268 0 .554-.005.847-.013l.274-.01c.214-.008.43-.018.654-.03l.314-.02c.242-.016.487-.036.734-.06.08-.006.158-.012.238-.02.322-.032.645-.07.968-.113.08-.01.157-.024.236-.035.246-.035.49-.074.732-.117l.322-.06c.22-.043.438-.09.653-.14.098-.022.196-.043.292-.067.3-.074.59-.154.868-.244l.04-.014c.26-.086.508-.18.743-.28.028-.013.06-.023.09-.035l.005 3.188c-.257.62-3.292 2.073-8.01 2.073z"/>
	</symbol>
	<symbol id="github" viewBox="0 0 14 14">
		<path d="M9.435 7.973c.27 0 .492.133.686.396.193.264.295.587.295.974 0 .385-.102.71-.294.973-.192.265-.416.396-.685.396-.278 0-.522-.13-.715-.396-.192-.262-.294-.588-.294-.973 0-.387.102-.71.294-.975s.436-.397.715-.397m3.44-3.56C13.62 5.226 14 6.21 14 7.368c0 .748-.086 1.423-.26 2.023-.174.597-.393 1.084-.653 1.46-.264.375-.588.704-.974.988-.386.286-.74.492-1.065.623-.325.133-.695.234-1.11.307-.418.07-.727.11-.944.123-.213.01-.438.014-.685.014-.056 0-.244.004-.548.015-.3.012-.56.015-.762.015s-.46-.003-.762-.016c-.304-.012-.492-.016-.547-.016-.245 0-.47-.005-.684-.014-.218-.012-.526-.052-.943-.123-.423-.072-.786-.174-1.11-.306-.325-.13-.68-.336-1.065-.622-.387-.284-.71-.613-.975-.99-.26-.374-.48-.86-.654-1.458C.085 8.79 0 8.115 0 7.367 0 6.21.38 5.224 1.125 4.414c-.082-.04-.085-.447-.008-1.217.063-.77.227-1.482.495-2.132.934.1 2.09.63 3.47 1.58.467-.118 1.102-.182 1.918-.182.852 0 1.49.064 1.918.184.63-.425 1.23-.77 1.805-1.034.584-.26 1.005-.416 1.27-.457l.395-.09c.27.65.434 1.36.496 2.132.076.77.073 1.175-.01 1.216m-5.844 7.82c1.688 0 2.954-.202 3.82-.607.856-.404 1.293-1.238 1.293-2.496 0-.73-.273-1.34-.822-1.827-.277-.263-.612-.425-.988-.486-.375-.06-.95-.06-1.72 0-.77.062-1.298.09-1.582.09-.385 0-.8-.018-1.32-.06-.52-.04-.927-.064-1.222-.077-.294-.01-.61.027-.958.108-.345.082-.63.224-.853.425-.52.47-.79 1.077-.79 1.828 0 1.26.426 2.093 1.28 2.497.85.405 2.113.607 3.802.607h.06m-2.434-4.26c.268 0 .492.132.685.395.193.264.295.587.295.974 0 .385-.102.71-.294.973-.19.265-.416.396-.684.396-.28 0-.522-.13-.716-.396-.192-.262-.294-.588-.294-.973 0-.387.102-.71.294-.975.193-.265.436-.397.716-.397"/>
	</symbol>
	<symbol id="envelope" viewBox="0 0 512 512">
		<path d="M498.208 68.235c-8.945-8.947-19.7-13.418-32.26-13.418H45.68c-12.562 0-23.318 4.47-32.264 13.418C4.47 77.18 0 87.935 0 100.5V411.13c0 12.566 4.47 23.312 13.418 32.257 8.945 8.952 19.7 13.42 32.264 13.42h420.266c12.56 0 23.315-4.468 32.26-13.42 8.95-8.946 13.42-19.698 13.42-32.258V100.5c-.002-12.565-4.47-23.32-13.42-32.265zm-23.13 342.89c0 2.475-.903 4.616-2.714 6.424-1.81 1.81-3.95 2.705-6.42 2.705H45.68c-2.475 0-4.617-.896-6.424-2.706-1.81-1.81-2.712-3.95-2.712-6.425V191.858c6.09 6.852 12.657 13.134 19.7 18.843 51.012 39.21 91.553 71.375 121.627 96.5 9.708 8.187 17.608 14.562 23.698 19.13 6.09 4.572 14.322 9.186 24.694 13.847 10.373 4.668 20.13 6.99 29.265 6.99h.571c9.134 0 18.894-2.322 29.263-6.99 10.377-4.66 18.614-9.274 24.702-13.846 6.09-4.568 13.99-10.943 23.698-19.13 30.074-25.125 70.61-57.29 121.624-96.5 7.043-5.707 13.613-11.99 19.694-18.842v219.267zm0-303.205v3.14c0 11.23-4.42 23.745-13.27 37.543-8.852 13.798-18.42 24.792-28.692 32.974-36.74 28.936-74.897 59.1-114.495 90.506-1.14.95-4.473 3.757-9.995 8.418-5.514 4.67-9.894 8.242-13.13 10.713-3.242 2.478-7.472 5.475-12.704 8.993-5.235 3.518-10.04 6.14-14.417 7.85-4.377 1.708-8.47 2.563-12.275 2.563h-.571c-3.806 0-7.895-.856-12.275-2.563-4.377-1.71-9.185-4.333-14.417-7.85-5.23-3.52-9.467-6.517-12.703-8.994-3.234-2.47-7.614-6.044-13.132-10.712-5.52-4.66-8.854-7.466-9.995-8.417-39.59-31.406-77.75-61.57-114.487-90.506-27.98-22.076-41.97-49.106-41.97-81.083 0-2.472.904-4.615 2.713-6.42 1.81-1.81 3.95-2.715 6.424-2.715H465.95c1.52.854 2.854 1.092 3.997.714 1.143-.385 1.998.33 2.566 2.138.57 1.81 1.095 2.664 1.57 2.57.477-.096.764 1.093.86 3.57.088 2.474.136 3.72.136 3.72v3.848h-.002z"/>
	</symbol>
	<symbol id="twitter" viewBox="0 0 52.851 52.851">
		<path d="M52.412 9.656c-.354-.24-.823-.227-1.165.03-.45.34-1.18.61-1.965.82 2.047-2.295 2.09-3.827 2.07-4.18-.024-.363-.243-.686-.573-.84-.332-.157-.72-.12-1.015.095-2.303 1.675-4.597 2.028-5.96 2.064-2.095-2.004-4.814-3.102-7.708-3.102-6.196 0-11.236 5.108-11.236 11.386 0 .54.04 1.08.114 1.613C14.236 17.42 5.516 7.13 5.426 7.025c-.21-.25-.528-.384-.854-.355-.326.027-.617.212-.78.496-3.09 5.36-1.022 10.068.868 12.764-.334-.178-.605-.354-.767-.473-.3-.224-.7-.26-1.04-.095-.336.166-.55.506-.558.88-.083 5.11 2.375 8.035 4.687 9.653-.308-.03-.62.085-.835.318-.24.26-.325.63-.22.97 1.596 5.226 5.517 7.002 8.012 7.605-5.13 3.994-12.68 2.708-12.764 2.694-.456-.08-.906.16-1.092.582-.185.422-.06.917.31 1.197 5.414 4.134 11.89 5.05 16.57 5.05 3.538 0 6.05-.525 6.29-.578 23.697-5.616 24.364-27.323 24.31-30.88 4.448-4.137 5.143-5.713 5.25-6.103.115-.414-.047-.854-.402-1.094zm-6.538 6.035c-.223.206-.34.5-.32.804.063.96 1.275 23.597-22.742 29.288-.11.023-9.656 2.015-17.932-2.085 3.497-.097 8.51-1.013 12.004-4.935.264-.295.328-.72.164-1.08-.162-.356-.52-.585-.91-.585h-.01c-.05.032-5.3-.006-7.705-5 .968.054 2.162-.006 3.113-.444.392-.18.623-.592.575-1.02-.047-.43-.365-.778-.787-.867-.27-.057-6.115-1.364-6.933-7.74.887.387 2.022.704 3.144.533.386-.06.702-.336.81-.71s-.01-.78-.304-1.036c-.25-.218-5.74-5.097-3.137-11.39C7.73 12.39 16.1 20.094 26.24 19.512c.297-.017.572-.167.75-.407.175-.24.235-.546.163-.835-.192-.765-.29-1.553-.29-2.34 0-5.177 4.144-9.387 9.237-9.387 2.49 0 4.828.994 6.58 2.8.183.19.436.3.7.304 1.06.015 2.802-.11 4.77-.9-.568.708-1.402 1.555-2.63 2.52-.346.272-.473.74-.312 1.15.16.412.577.67 1.01.632.234-.02 1.422-.124 2.765-.415-.734.788-1.737 1.794-3.11 3.056z"/>
	</symbol>
	<symbol id="blog-comment" viewBox="0 0 67.025 67.026">
		<path d="M41.44 29.477l3.136 1.792 6.272-3.585-9.407-5.6"/><path d="M60.48 18.052l2.24-4.03c1.79-3.138-3.36-6.722-5.824-8.064-2.465-1.345-8.063-4.257-9.855-.896l-3.136 5.376c-3.137-.672-6.72-1.12-10.304-1.12-18.592 0-33.6 10.08-33.6 22.4 0 12.318 15.008 22.398 33.6 22.398h.225c.224 2.688-2.912 7.168-7.393 9.407 17.698 0 25.76-13.216 25.76-13.216 8.96-4.032 14.784-10.752 14.784-18.592.448-5.15-2.24-9.854-6.496-13.663zM15.455 37.99c-1.792 0-3.136-1.346-3.136-3.138 0-1.792 1.343-3.136 3.135-3.136s3.136 1.344 3.136 3.136-1.565 3.138-3.135 3.138zm8.288 0c-1.792 0-3.136-1.346-3.136-3.138 0-1.792 1.344-3.136 3.136-3.136s3.136 1.344 3.136 3.136-1.345 3.138-3.137 3.138zm8.29 0c-1.793 0-3.138-1.346-3.138-3.138 0-1.792 1.345-3.136 3.137-3.136s3.136 1.344 3.136 3.136-1.344 3.138-3.136 3.138zm19.936-9.633l-6.497 3.584-5.377 2.912V21.413l8.96-15.456c.448-.896 3.585 0 6.944 1.792s5.6 4.03 4.928 4.927l-8.96 15.68z"/>
	</symbol>
	<symbol id="blog-post" viewBox="0 0 469.862 469.863">
		<path d="M447.633 39.537h-191.19c-12.26 0-22.232 9.972-22.232 22.23v98.652c0 12.257 9.974 22.228 22.233 22.228h16.787v39.16c0 2.708 1.58 5.166 4.043 6.293.92.42 1.9.628 2.875.628 1.63 0 3.243-.576 4.524-1.685l51.38-44.396h111.58c12.257 0 22.23-9.973 22.23-22.23v-98.65c0-12.258-9.97-22.23-22.23-22.23zM296.686 127.45c-9.743 0-17.642-7.9-17.642-17.644s7.897-17.644 17.642-17.644c9.746 0 17.646 7.9 17.646 17.644-.002 9.743-7.9 17.644-17.646 17.644zm55.35 0c-9.74 0-17.643-7.9-17.643-17.644s7.9-17.644 17.644-17.644c9.744 0 17.645 7.9 17.645 17.644 0 9.743-7.9 17.644-17.645 17.644zm55.355 0c-9.742 0-17.642-7.9-17.642-17.644s7.898-17.644 17.643-17.644c9.746 0 17.645 7.9 17.645 17.644-.002 9.743-7.902 17.644-17.644 17.644zM140.857 134.958c-43.093 0-66.94 22.33-66.506 65.358.632 58.932 25.674 94.682 66.507 94.058 0 0 66.473 2.695 66.473-94.058 0-43.028-22.457-65.358-66.473-65.358zM258.434 339.103l-66.42-26.48-15.553-13.107c-4.107-3.47-10.175-3.215-13.985.574l-21.624 21.504-21.687-21.51c-3.813-3.783-9.872-4.027-13.975-.567l-15.556 13.106-66.423 26.484C1.82 347.627 1.835 423.37 0 430.327h281.674c-1.832-6.94-1.843-82.712-23.24-91.224z"/>
	</symbol>
	<symbol id="blog" viewBox="0 0 95.938 95.938">
		<path d="M95.33 59.86c-.032-7.133-.054-12.288-3.563-16.823-3.975-5.134-10.106-6.004-15.076-6.152.838-3.587 1.08-7.564.693-11.863C77.277 10.705 66.623.414 51.84.006L51.625 0 29.012.018h-.243C19.973.017 13.02 2.642 8.104 7.82 5.062 11.025 1.02 16.62.592 25.667l-.018 36.48c-.044.69.025 1.385.016 2.1 0 10.38 1.66 17.85 6.848 23.37 5.183 5.522 12.847 8.32 22.776 8.32.215 0 .432 0 .65-.003H65.49c8.858-.074 16.343-2.998 21.646-8.455 5.293-5.447 8.143-13.208 8.24-22.44 0 0-.043-3.718-.05-5.177zM30.845 19.458l19.322-.023c4.554.072 8.188 4.15 8.114 8.705-.072 4.508-3.75 7.798-8.242 7.798l-19.455.008c-4.554-.073-8.186-3.823-8.113-8.375.072-4.553 3.814-8.157 8.374-8.113zm36.318 54.275H28.52c-4.552 0-8.245-3.69-8.245-8.246 0-4.554 3.693-8.246 8.246-8.246h38.645c4.555 0 8.246 3.692 8.246 8.246 0 4.555-3.69 8.246-8.246 8.246z"/>
	</symbol>
	<symbol id="chevron-up" viewBox="0 0 477.159 477.159">
		<path d="M35.845 402.72c0 5.09 2.118 10.15 5.72 13.75l55 55c3.597 3.59 8.634 5.687 13.718 5.687s10.152-2.096 13.75-5.688l114.562-114.563L353.157 471.47c3.667 3.663 8.848 5.763 14.03 5.687 4.986-.078 9.912-2.163 13.44-5.688l55-55c3.6-3.6 5.687-8.66 5.687-13.75s-2.087-10.152-5.688-13.75l-183.28-183.282c-3.6-3.6-8.66-5.688-13.75-5.688s-10.152 2.087-13.75 5.688L41.562 388.968c-3.6 3.6-5.718 8.66-5.718 13.75zm0-200c0 5.09 2.118 10.15 5.72 13.75l55 55c3.597 3.59 8.634 5.687 13.718 5.687s10.152-2.096 13.75-5.688l114.562-114.563L353.157 271.47c3.667 3.663 8.848 5.763 14.03 5.687 4.986-.078 9.912-2.163 13.44-5.688l55-55c3.6-3.6 5.687-8.66 5.687-13.75s-2.087-10.152-5.688-13.75L252.346 5.687c-3.6-3.6-8.66-5.688-13.75-5.688s-10.152 2.087-13.75 5.688L41.562 188.968c-3.6 3.6-5.718 8.66-5.718 13.75z"/>
	</symbol>
	<symbol id="next-page" viewBox="0 0 294.997 294.997">
		<path d="M286.36 98.016c-13.223-37.09-40.098-66.813-75.675-83.69-35.576-16.88-75.597-18.893-112.688-5.67C60.907 21.88 31.183 48.754 14.305 84.33-2.572 119.91-4.585 159.93 8.637 197.02c1.113 3.122 4.547 4.748 7.667 3.637 3.122-1.113 4.75-4.545 3.637-7.667-12.146-34.072-10.297-70.835 5.207-103.516s42.807-57.37 76.88-69.515c34.07-12.147 70.835-10.297 103.515 5.206 32.682 15.504 57.37 42.807 69.516 76.88 12.146 34.07 10.297 70.834-5.207 103.515s-42.806 57.37-76.878 69.516c-38.19 13.613-80.082 9.493-114.935-11.304-2.848-1.7-6.53-.768-8.227 2.078-1.698 2.846-.768 6.53 2.078 8.227 23.207 13.848 49.276 20.903 75.54 20.902 16.675 0 33.43-2.846 49.573-8.6 37.093-13.223 66.814-40.098 83.692-75.675 16.878-35.578 18.89-75.598 5.668-112.69z"/><path d="M213.5 147.518c0-3.313-2.688-6-6-6H58.07c-3.315 0-6 2.687-6 6s2.685 6 6 6H207.5c3.312 0 6-2.687 6-6z"/><path d="M165.686 210.275c-2.344 2.343-2.344 6.142 0 8.485 1.17 1.17 2.707 1.757 4.242 1.757s3.07-.586 4.242-1.757l67-67c2.344-2.343 2.344-6.142 0-8.485l-67-67c-2.342-2.343-6.143-2.343-8.484 0-2.344 2.343-2.344 6.142 0 8.485l62.757 62.757-62.757 62.758z"/>
	</symbol>
	<symbol id="chevron-right" viewBox="0 0 405.457 405.457">
		<path d="M64.147 331.322c.078 4.985 2.163 9.91 5.688 13.438l55 55c3.6 3.6 8.66 5.697 13.75 5.697s10.15-2.096 13.75-5.697l183.28-183.282c3.602-3.6 5.698-8.66 5.698-13.75s-2.096-10.15-5.697-13.75L152.336 5.698c-3.6-3.602-8.66-5.698-13.75-5.698-5.092 0-10.152 2.096-13.75 5.697l-55 55c-3.592 3.598-5.682 8.65-5.682 13.734s2.09 10.137 5.68 13.735l114.563 114.563L69.835 317.29c-3.664 3.668-5.765 8.85-5.688 14.032z"/>
	</symbol>
	<symbol id="circle" viewBox="0 0 438.533 438.533"><path d="M409.133 109.203c-19.608-33.592-46.205-60.19-79.798-79.796C295.735 9.8 259.058 0 219.273 0c-39.78 0-76.47 9.8-110.063 29.407-33.595 19.604-60.192 46.2-79.8 79.796C9.8 142.8 0 179.49 0 219.267c0 39.78 9.804 76.463 29.407 110.062 19.607 33.59 46.204 60.188 79.8 79.797 33.596 19.605 70.282 29.407 110.062 29.407s76.47-9.802 110.064-29.407c33.593-19.602 60.19-46.206 79.795-79.798 19.602-33.597 29.402-70.285 29.402-110.063 0-39.782-9.8-76.472-29.4-110.064zm-55.39 188.005c-13.895 23.79-32.737 42.633-56.528 56.534-23.79 13.894-49.77 20.834-77.945 20.834-28.167 0-54.15-6.94-77.943-20.834-23.79-13.9-42.633-32.743-56.527-56.534-13.897-23.79-20.843-49.772-20.843-77.94 0-28.172 6.95-54.153 20.843-77.944 13.89-23.79 32.738-42.637 56.527-56.53 23.79-13.895 49.772-20.84 77.943-20.84 28.173 0 54.154 6.945 77.945 20.84 23.79 13.894 42.634 32.74 56.527 56.53 13.895 23.79 20.838 49.772 20.838 77.943 0 28.17-6.943 54.15-20.838 77.94z"/>
	</symbol>
	<symbol id="hexagon" viewBox="0 0 202.071 202.071">
		<path d="M50.518 188.535h101.038l50.515-87.5-50.514-87.5H50.518L0 101.035l50.518 87.5zm8.66-160h83.718l41.854 72.5-41.854 72.5H59.178l-41.858-72.5 41.858-72.5z"/>
	</symbol>	
	<symbol id="full-hexagon" viewBox="0 0 184.751 184.751">
		<path d="M0 92.375l46.188-80h92.378l46.185 80-46.184 80H46.188L0 92.375z"/>
	</symbol>
	<symbol id="border-hexagon" viewBox="0 0 494.674 494.674">
		<path d="M491.384 235.1L379.94 42.088c-4.353-7.563-12.442-12.232-21.184-12.232H135.902c-8.74 0-16.832 4.67-21.185 12.232L3.29 235.1c-4.387 7.57-4.387 16.895 0 24.475l111.427 193.012c4.353 7.562 12.445 12.233 21.185 12.233h222.854c8.74 0 16.83-4.67 21.185-12.233l111.444-193.012c4.387-7.57 4.387-16.912 0-24.474zm-146.76 180.77h-194.59L52.74 247.333l97.295-168.53h194.588l97.31 168.53-97.31 168.54z"/><path d="M168.54 110.846L89.746 247.332l78.792 136.495h157.58l78.805-136.495-78.806-136.486"/>
	</symbol>
	<symbol id="histoire" viewBox="0 0 450 500">

		<path d="M259.5763 491.3938c-7.56 4.38-16.91 4.38-24.47 0l-193.02-111.45c-7.56-4.35-12.23-12.44-12.23-21.18v-222.86c0-8.74 4.67-16.83 12.23-21.18l193.02-111.43c7.57-4.39 16.9-4.39 24.47 0l193.01 111.43c7.56 4.35 12.23 12.44 12.23 21.18v222.86c0 8.74-4.66 16.83-12.23 21.18l-193.01 111.44z" id="Chemin#1" fill="#ffffff" stroke="#eb2d40" stroke-width="4"/>

		<path d="M258.0743 463.5087c-6.724 3.9064-15.04 3.9064-21.764 0L64.6363 364.111c-6.724-3.8797-10.8775-11.095-10.8775-18.8897v-198.76c0-7.7948 4.1535-15.01 10.8775-18.8896l171.6744-99.38c6.733-3.9152 15.031-3.9152 21.764 0l171.6653 99.38c6.724 3.8796 10.8775 11.0948 10.8775 18.8896v198.76c0 7.795-4.1446 15.01-10.8775 18.8896l-171.6654 99.388z" id="Chemin#2" fill="#eb2d40" stroke="#eb2d40" stroke-width="4"/>

		<path d="M297.92 129.2628l-47.8777-24.8424c-1.8638-.9677-4.1426-.9677-6.0096 0l-47.8776 24.8424c-2.428 1.2602-3.63 3.8738-2.923 6.3598.706 2.4872 3.142 4.221 5.928 4.221h95.756c2.786 0 5.223-1.7344 5.93-4.2216.707-2.4872-.495-5.1002-2.924-6.3604zm-75.3606-.7266l24.4784-12.7 24.479 12.7017h-48.958z" id="Chemin#3" fill="#ffffff"/>

		<path d="M378.5553 333.6963h-5.824v-19.251c0-3.4372-2.64-6.224-5.8945-6.224H353.955v-14.189c0-3.0976-2.2578-5.6345-5.1293-5.8886l-2.2308-80.1228h1.76c3.093 0 5.6-2.646 5.6-5.912v-14.191h12.882c3.255 0 5.894-2.788 5.894-6.224v-19.25h5.824c2.68 0 5.023-1.909 5.702-4.648.679-2.737-.477-5.614-2.813-7.002L249.992 72.718c-1.794-1.0656-3.986-1.0656-5.78 0L112.76 150.7933c-2.336 1.3873-3.4915 4.2643-2.8124 7.0026.6785 2.737 3.0212 4.647 5.7015 4.647h5.824v19.25c0 3.436 2.639 6.223 5.895 6.223h12.884v14.189c0 3.266 2.506 5.9136 5.599 5.9136h1.76l-2.23 80.123c-2.8716.253-5.129 2.79-5.129 5.8886v14.189h-12.883c-3.2552 0-5.894 2.786-5.894 6.2233v19.251h-5.824c-3.256 0-5.8945 2.787-5.8945 6.225v25.4746c0 3.436 2.64 6.2235 5.895 6.2235h262.905c3.2563 0 5.895-2.787 5.895-6.224v-25.475c0-3.436-2.6387-6.222-5.894-6.222zM247.1026 85.2853l108.9497 64.7104H138.153l108.9496-64.7105zm-113.8392 90.185v-13.0265h227.6783v13.0264H133.2634zm209.4904 124.785v7.9654h-27.4186v-7.965h27.4186zm-21.6865-12.4487l2.213-79.4754h11.5284l1.6725 60.085.5394 19.3898h-15.9533zm21.2962-91.6127c-.5765-.199-1.192-.312-1.831-.312H317.556c-.6398 0-1.254.111-1.831.311h-.391v-8.277h27.4186v8.277h-.3902zm-75.4815 91.949l-.558-20.092-1.671-60.031h1.76c3.0933 0 5.6-2.647 5.6-5.913v-14.189h32.1223v14.189c0 3.266 2.507 5.913 5.6 5.913h1.7597l-2.2315 80.122c-2.8716.253-5.1278 2.79-5.1278 5.8874v14.189h-32.123l.0002-14.189c0-3.0983-2.257-5.635-5.13-5.8887zm-6.07 12.112v7.965h-27.418v-7.965h27.4185zm-21.685-12.448l2.212-79.476h11.5295l2.212 79.475H239.128zm21.2946-91.613c-.5764-.199-1.192-.312-1.831-.312h-22.976c-.6396 0-1.2527.111-1.831.311h-.3907v-8.277h27.42v8.277h-.391zm-75.4803 91.949l-2.2307-80.123h1.76c3.0934 0 5.6002-2.647 5.6002-5.913v-14.189h32.1228v14.189c0 3.266 2.5068 5.913 5.6 5.913h1.7597l-2.231 80.123c-2.8717.253-5.129 2.789-5.129 5.888v14.189H190.07v-14.189c0-3.099-2.2562-5.636-5.1294-5.889zm-6.07 12.111v7.965h-27.419v-7.965h27.4185zm-21.685-12.447l2.212-79.475h11.528l2.2117 79.475h-15.952zm21.294-91.612c-.5765-.199-1.1918-.312-1.831-.312h-22.976c-.6398 0-1.253.111-1.831.311h-.3903v-8.277h27.418v8.277h-.3904zm-45.216 124.475h227.678v13.026h-227.679v-13.028zm239.3967 38.501H121.545v-13.028h251.116v13.027z" id="Chemin#4" fill="#ffffff"/>
	</symbol>
	<symbol id="cartographie" viewBox="0 0 450 500">
	
		<path d="M259.5763 491.3938c-7.56 4.38-16.91 4.38-24.47 0l-193.02-111.45c-7.56-4.35-12.23-12.44-12.23-21.18v-222.86c0-8.74 4.67-16.83 12.23-21.18l193.02-111.43c7.57-4.39 16.9-4.39 24.47 0l193.01 111.43c7.56 4.35 12.23 12.44 12.23 21.18v222.86c0 8.74-4.66 16.83-12.23 21.18l-193.01 111.44z" id="Chemin#1" fill="#ffffff" stroke="#ffa810" stroke-width="4"/><path d="M258.0743 463.5087c-6.724 3.9064-15.04 3.9064-21.764 0L64.6363 364.111c-6.724-3.8797-10.8775-11.095-10.8775-18.8897v-198.76c0-7.7948 4.1535-15.01 10.8775-18.8896l171.6744-99.38c6.733-3.9152 15.031-3.9152 21.764 0l171.6653 99.38c6.724 3.8796 10.8775 11.0948 10.8775 18.8896v198.76c0 7.795-4.1446 15.01-10.8775 18.8896l-171.6654 99.388z" id="Chemin#2" fill="#ffa810" stroke="#ffa810" stroke-width="4"/>
		
		<path d="M392.1018 123.751c-1.5994-.9116-3.5934-.9517-5.241-.1352l-88.146 43.8497-88.141-43.8547c-.0692-.035-.1492-.05-.2132-.075-.2666-.1103-.5225-.2005-.789-.2706-.1493-.04-.2933-.0852-.4426-.1152-.2932-.05-.5864-.075-.8957-.0852-.1386 0-.2665-.02-.4105-.015-.288.015-.5705.065-.853.1252-.16.03-.32.05-.48.1002-.032 0-.0692 0-.1065.015l-95.9675 30.0547c-2.1646.686-3.636 2.599-3.636 4.753V373.49c0 1.603.821 3.1207 2.2178 4.0674.917.6162 2.01.9418 3.1136.9418.565 0 1.1356-.0852 1.6847-.2605l94.08-29.4637 88.807 34.3626c.069.025.16.015.229.04.586.2005 1.183.3307 1.796.3307.48 0 .959-.075 1.418-.2004.149-.035.288-.1.437-.15.213-.076.437-.131.64-.231l90.636-45.082c1.743-.867 2.836-2.575 2.836-4.428V128.044c0-1.7533-.981-3.3863-2.581-4.293zm-274.659 37.954l85.3044-26.6985v135.196c-2.2925.3906-4.553.8314-6.739 1.3724-2.847.711-4.5425 3.456-3.7854 6.126.6397 2.244 2.7883 3.726 5.1502 3.726.448 0 .9064-.05 1.3702-.161 1.2796-.321 2.6658-.481 3.9987-.742v59.308l-85.3 26.703v-204.82zm95.9675 117.4136c1.706-.1252 3.3695-.3306 5.1182-.3657 2.9484-.06 5.2783-2.355 5.225-5.11-.064-2.735-2.4366-4.909-5.3316-4.909h-.118c-1.653.035-3.279.12-4.895.225v-132.59l79.973 39.772v106.163c-3.807-.15-7.678-.576-11.73-1.313-2.906-.536-5.694 1.252-6.254 3.957-.56 2.705 1.333 5.35 4.222 5.876 4.718.861 9.303 1.282 13.755 1.452v78.743l-79.968-30.941v-60.961zm170.609 51.2783l-79.973 39.772v-78.443c1.9833-.842 3.3055-2.745 3.1296-4.909-.16-1.869-1.44-3.371-3.13-4.108V176.141l79.973-39.7723v194.028z" id="chemin_4" fill="#ffffff"/>
		
		<path d="M167.9248 169.1695c-13.5847 0-24.6367 10.5526-24.6367 23.5235 0 11.362 8.475 20.8607 19.71 23.053v9.88c0 2.6017 2.208 4.7047 4.928 4.7047 2.72 0 4.928-2.103 4.928-4.7047v-9.88c11.235-2.1923 19.71-11.691 19.71-23.053 0-12.971-11.052-23.5235-24.636-23.5235zm0 37.6376c-8.1498 0-14.782-6.332-14.782-14.114 0-7.781 6.6322-14.114 14.782-14.114 8.1498 0 14.782 6.333 14.782 14.114 0 7.782-6.6322 14.114-14.782 14.114zm167.8742 50.214c.5912.221 1.1973.32 1.7935.32 1.971 0 3.8285-1.129 4.5923-2.987 2.3158-5.645 4.1734-12.011 5.5334-18.931.4927-2.54-1.2664-5.001-3.942-5.485-2.6902-.423-5.2475 1.209-5.75 3.764-1.2418 6.342-2.9318 12.139-5.026 17.234-.9854 2.4137.2612 5.147 2.7938 6.0975zm-158.9804 21.966c-5.9473 3.562-11.3082 8.022-15.94 13.268-1.754 1.986-1.488 4.954.5914 6.634.9263.739 2.0547 1.101 3.1732 1.101 1.4043 0 2.7938-.565 3.7694-1.67 3.9665-4.493 8.5538-8.318 13.634-11.352 2.306-1.383 3.0056-4.281 1.557-6.492-1.4438-2.197-4.484-2.87-6.79-1.482zm-20.5864 27.918c-2.4735-1.082-5.4003-.061-6.5385 2.306-5.0555 10.468-6.307 18.923-6.3563 19.28-.3745 2.574 1.5078 4.94 4.203 5.293.2267.028.4583.047.68.047 2.4242 0 4.533-1.707 4.878-4.055.0148-.075 1.1432-7.513 5.5482-16.626 1.1333-2.367.059-5.157-2.4144-6.248zm156.6695-21.387c.7538 0 1.5274-.169 2.237-.517 6.366-3.105 11.9734-7.527 16.674-13.107 1.7098-2.023 1.3698-4.987-.7538-6.614-2.119-1.614-5.223-1.2982-6.928.7248-3.819 4.5496-8.352 8.1205-13.472 10.6187-2.424 1.176-3.385 4.013-2.144 6.328.887 1.623 2.611 2.5593 4.4 2.5593zm-55.4473-10.811c-2.168-.87-3.449-1.472-3.528-1.515-.3202-.155-.6602-.282-1.01-.367-5.3413-1.307-10.5938-2.343-15.6394-3.076-2.6854-.404-5.2033 1.365-5.6172 3.938-.409 2.569 1.4388 4.973 4.129 5.364 4.5628.668 9.3276 1.5994 14.176 2.7756.6652.301 1.9217.8705 3.6955 1.5715.616.2448 1.2615.3577 1.892.3577 1.9218 0 3.7597-1.082 4.548-2.8885 1.0496-2.409-.133-5.166-2.646-6.1636zm87.475-54.113c.1083.009.2118.014.3202.014 2.577 0 4.745-1.91 4.9125-4.408.306-4.516.459-9.306.459-14.208 0-1.632-.015-3.293-.049-4.977-.049-2.602-2.414-4.5774-5.016-4.62-2.72.047-4.888 2.1926-4.838 4.7896.03 1.6328.05 3.237.05 4.8085 0 4.7047-.148 9.2824-.443 13.6107-.167 2.588 1.892 4.8227 4.607 4.987zm-190.343 41.293c.961.918 2.2174 1.379 3.4837 1.379 1.267 0 2.523-.461 3.484-1.378l6.371-6.083 6.371 6.083c.961.918 2.218 1.379 3.484 1.379 1.267 0 2.523-.461 3.484-1.3782 1.922-1.8343 1.922-4.8124 0-6.652l-6.371-6.083 6.371-6.0834c1.922-1.835 1.922-4.813 0-6.6524-1.921-1.8394-5.04-1.835-6.967 0l-6.371 6.083-6.371-6.083c-1.921-1.835-5.04-1.835-6.967 0-1.926 1.835-1.921 4.813 0 6.6526l6.371 6.083-6.371 6.083c-1.921 1.835-1.921 4.813 0 6.6525z" id="Chemin#3" fill="#ffffff"/>
	</symbol>
	
	<symbol id="scenarii" viewBox="0 0 450 500">
		<path d="M259.5763 491.3938c-7.56 4.38-16.91 4.38-24.47 0l-193.02-111.45c-7.56-4.35-12.23-12.44-12.23-21.18v-222.86c0-8.74 4.67-16.83 12.23-21.18l193.02-111.43c7.57-4.39 16.9-4.39 24.47 0l193.01 111.43c7.56 4.35 12.23 12.44 12.23 21.18v222.86c0 8.74-4.66 16.83-12.23 21.18l-193.01 111.44z" id="Chemin#1" fill="#ffffff" stroke="#3883eb" stroke-width="4"/><path d="M258.0743 463.5087c-6.724 3.9064-15.04 3.9064-21.764 0L64.6363 364.111c-6.724-3.8797-10.8775-11.095-10.8775-18.8897v-198.76c0-7.7948 4.1535-15.01 10.8775-18.8896l171.6744-99.38c6.733-3.9152 15.031-3.9152 21.764 0l171.6653 99.38c6.724 3.8796 10.8775 11.0948 10.8775 18.8896v198.76c0 7.795-4.1446 15.01-10.8775 18.8896l-171.6654 99.388z" id="Chemin#2" stroke-width="4" stroke="#3883eb" fill="#3883eb"/><path d="M350.1357 129.956l-14.4303-.082h-.027c-.0273 0-.053.004-.0797.004v-9.5936c0-2.6703-2.1652-4.8354-4.8364-4.8354H316.253v-9.668c0-2.6704-2.165-4.8348-4.8364-4.8348H191.0078c-.6154-8.1018-7.401-14.506-15.6592-14.506-8.2588 0-15.043 6.4042-15.659 14.5048h-22.3948c-2.6713 0-4.8364 2.1644-4.8364 4.8347V352.363c0 2.6702 2.1645 4.8346 4.8358 4.8346h9.6728v14.5047c0 2.6703 2.1652 4.8347 4.8364 4.8347h9.6728v14.5048c0 2.6696 2.1652 4.834 4.8364 4.834h183.7947c2.6725 0 4.837-2.1644 4.837-4.8347V134.789c.001-2.6588-2.148-4.82-4.808-4.8346zM175.3487 96.11c2.9175 0 5.3575 2.081 5.9154 4.8354h-11.831c.5577-2.7537 2.9977-4.8347 5.916-4.8347zm-33.217 251.4186V110.6154h17.5072v35.0037c0 8.659 7.0472 15.704 15.7092 15.704s15.709-7.045 15.709-15.704v-21.737c0-2.6702-2.1658-4.8346-4.8376-4.8346-2.6714 0-4.8366 2.1644-4.8366 4.8347v21.7376c0 3.3273-2.708 6.034-6.036 6.034-3.3284 0-6.0356-2.7067-6.0356-6.034V110.616h137.2658v236.912H142.1318zm14.5087 19.34v-9.6693H311.416c2.671 0 4.8363-2.165 4.8363-4.8354V125.12h9.673v241.7474H156.641zm14.5112 19.34v-9.6693h159.61c2.6712 0 4.8364-2.165 4.8364-4.8353V139.542c.019 0 .0354.003.0537.003l9.6198.0538v246.609h-174.12z" id="path6" fill="#ffffff"/><path d="M258.212 192.8102h-67.7148c-2.6712 0-4.837 2.1638-4.837 4.8347 0 2.6692 2.1658 4.8342 4.837 4.8342h67.715c2.6712 0 4.8364-2.1644 4.8364-4.8347 0-2.6704-2.1652-4.8354-4.8365-4.8354zm0 19.3388h-67.7148c-2.6712 0-4.837 2.165-4.837 4.836 0 2.6696 2.1658 4.8346 4.837 4.8346h67.715c2.6712 0 4.8364-2.1644 4.8364-4.8346 0-2.6703-2.1652-4.8354-4.8365-4.8354zm-19.3474 19.34h-29.0204c-2.6713 0-4.8365 2.1644-4.8365 4.8354 0 2.6702 2.1646 4.8346 4.8358 4.8346h29.0204c2.671 0 4.836-2.1644 4.836-4.8346 0-2.6703-2.1646-4.8354-4.8365-4.8354z" id="Chemin#3" fill="#ffffff"/>
		
	</symbol>
	
	<symbol id="ressources" viewBox="0 0 450 500">
	
		<path d="M259.5763 491.3938c-7.56 4.38-16.91 4.38-24.47 0l-193.02-111.45c-7.56-4.35-12.23-12.44-12.23-21.18v-222.86c0-8.74 4.67-16.83 12.23-21.18l193.02-111.43c7.57-4.39 16.9-4.39 24.47 0l193.01 111.43c7.56 4.35 12.23 12.44 12.23 21.18v222.86c0 8.74-4.66 16.83-12.23 21.18l-193.01 111.44z" id="Chemin#1" fill="#ffffff" stroke="#3bc492" stroke-width="4"/>
		
		<path d="M258.0743 463.5087c-6.724 3.9064-15.04 3.9064-21.764 0L64.6363 364.111c-6.724-3.8797-10.8775-11.095-10.8775-18.8897v-198.76c0-7.7948 4.1535-15.01 10.8775-18.8896l171.6744-99.38c6.733-3.9152 15.031-3.9152 21.764 0l171.6653 99.38c6.724 3.8796 10.8775 11.0948 10.8775 18.8896v198.76c0 7.795-4.1446 15.01-10.8775 18.8896l-171.6654 99.388z" id="Chemin#2" stroke-width="4" stroke="#3bc492" fill="#3bc492"/>
		
		<g id="g4136" fill="#ffffff">
		
			<path id="path6" d="M175.8736 135.5738c2.0538 6.369 7.5893 10.6513 13.7758 10.6513h37.4924c6.1916 0 11.7272-4.282 13.776-10.651 1.9678-6.088 8.114-19.707 12.8876-24.033 4.1882-3.801 6.146-9.689 5.1167-15.366-1.009-5.579-4.642-9.991-9.728-11.786-15.138-5.385-28.576-3.568-38.844 5.223-1.842 1.579-4.314 1.579-6.156 0-10.269-8.797-23.691-10.602-38.844-5.228-5.081 1.801-8.73 6.207-9.739 11.798-1.024 5.677.939 11.571 5.122 15.366 5.4 4.899 13.675 19.486 15.139 24.028zM165.529 98.2405c.1767-1.011.8075-2.8115 2.9924-3.59 4.693-1.6762 9.0628-2.498 13.1098-2.498 6.2268 0 11.6665 1.968 16.2484 5.8933 5.5305 4.747 13.251 4.7363 18.7714 0 7.5692-6.488 17.4443-7.6235 29.3682-3.4062 2.17.7785 2.8057 2.5952 2.9873 3.5954.338 1.8762-.3027 3.763-1.7308 5.0553-7.7104 6.9963-14.6033 24.7412-15.895 28.7638-.646 2.001-2.3516 3.353-4.239 3.353h-37.4923c-1.8872 0-3.5827-1.351-4.2387-3.352-2.0992-6.542-11.4546-22.681-18.1558-28.764-1.434-1.297-2.084-3.19-1.741-5.055zm85.7634 58.798c0-2.9845-2.2606-5.4067-5.046-5.4067-.9386 0-1.7662.3514-2.523.8272-.757-.4758-1.5846-.8218-2.5232-.8218h-60.553c-2.7854 0-5.046 2.4222-5.046 5.4067 0 2.984 2.2606 5.406 5.046 5.406h60.553v5.406h-55.507c-2.7853 0-5.046 2.422-5.046 5.407 0 2.984 2.2607 5.406 5.046 5.406h60.1747c4.521 4.033 10.092 6.342 16.046 6.342 6.731 0 13.069-2.812 17.838-7.921 1.968-2.109 1.968-5.531 0-7.645-1.968-2.109-5.162-2.109-7.135 0-5.702 6.109-15.583 6.131-21.325.081v-12.473zm-50.4608 64.8806c-32.3455 0-70.6453 43.957-70.6453 81.101 0 2.985 2.2607 5.407 5.046 5.407 2.7856 0 5.0462-2.422 5.0462-5.406 0-30.872 33.9602-70.287 60.553-70.287 2.7855 0 5.046-2.422 5.046-5.406s-2.2605-5.406-5.046-5.406z"/>
		
			<path id="path8" d="M342.122 254.3594c-5.1975 0-11.4042.3244-17.6462 1.0814-6.797-13.3276-15.759-24.7952-27.0722-34.0786l-36.342-26.466c-6.0048-4.9416-15.4814-10.824-26.4717-10.824h-39.244c-9.709 0-19.256 3.5413-26.745 9.851l-35.716 27.8824c-37.225 31.359-49.008 86.3128-28.006 130.6695 7.635 16.139 20.396 35.642 37.846 36.907 1.362.109 2.75.163 4.137.163h98.197c7.407 9.867 18.746 16.22 31.462 16.22 14.623 0 27.42-8.412 34.505-20.924 9.017 3.001 20.073 4.704 31.094 4.704 24.271 0 50.461-8.272 50.461-21.627V338.18h-.404c.252-.8813.403-1.784.403-2.7033V273.294c0-14.9497-31.72-18.9344-50.461-18.9344zm39.9852 18.8695c-.101.118-.1918.232-.338.356-.202.162-.439.346-.7066.53-.333.227-.7367.465-1.1757.702-.354.194-.732.394-1.161.595-.53.254-1.161.508-1.797.767-.505.205-1.03.411-1.615.621-.737.254-1.585.513-2.437.767-.666.2-1.322.405-2.059.595-.959.259-2.044.486-3.119.724-.808.178-1.585.362-2.463.529-1.211.227-2.564.422-3.901.616-.909.135-1.766.286-2.735.405-1.59.195-3.341.324-5.087.465-.888.065-1.695.162-2.624.216-2.755.162-5.672.27-8.78.27-3.109 0-6.035-.109-8.79-.271-.929-.054-1.736-.146-2.624-.217-1.746-.146-3.497-.281-5.087-.47-.974-.119-1.827-.271-2.74-.406-1.338-.195-2.69-.39-3.901-.617-.878-.162-1.65-.352-2.463-.53-1.075-.238-2.155-.471-3.114-.719-.742-.195-1.393-.395-2.069-.595-.848-.26-1.691-.519-2.432-.779-.586-.217-1.11-.422-1.615-.628-.646-.26-1.272-.514-1.801-.768-.424-.2-.797-.4-1.161-.595-.434-.243-.838-.487-1.171-.703-.268-.184-.505-.357-.707-.53-.131-.108-.202-.216-.303-.324.05-.054.101-.108.166-.162.192-.173.454-.362.722-.541.403-.292.918-.595 1.513-.919.333-.179.656-.352 1.04-.53.393-.19.858-.379 1.312-.573.545-.228 1.14-.455 1.766-.682.454-.162.898-.325 1.403-.487 1.13-.379 2.371-.736 3.724-1.082.625-.162 1.352-.313 2.033-.465.818-.189 1.665-.378 2.553-.5403.984-.195 2.028-.379 3.108-.541 5.687-.919 12.494-1.568 20.613-1.568 23.847 0 37.189 5.272 40.015 8.056zm-76.9528 44.486c.454.205.9284.4 1.4028.595.878.378 1.7762.719 2.7047 1.059.489.178.968.351 1.463.519 1.07.357 2.17.686 3.28 1.005.403.108.777.238 1.175.34 1.529.411 3.093.789 4.693 1.124.338.07.686.124 1.024.194 1.287.27 2.588.503 3.91.713.57.092 1.14.162 1.716.249 1.13.162 2.271.308 3.431.432l1.816.194c1.186.108 2.381.2 3.582.27.535.038 1.069.081 1.604.108 1.725.081 3.446.135 5.162.135 1.715 0 3.441-.054 5.167-.141.545-.027 1.09-.07 1.635-.108 1.185-.07 2.371-.162 3.552-.271.621-.054 1.241-.119 1.857-.189 1.135-.13 2.261-.271 3.381-.433.585-.087 1.17-.162 1.751-.26 1.302-.205 2.583-.443 3.85-.703.353-.065.721-.124 1.08-.2 1.594-.34 3.154-.713 4.672-1.119.424-.108.827-.243 1.246-.362 1.095-.308 2.17-.632 3.209-.984.505-.173.999-.351 1.494-.53.918-.335 1.817-.686 2.69-1.048.469-.195.938-.395 1.392-.595.909-.416 1.766-.849 2.599-1.298.262-.135.555-.254.807-.395l.036 19.053c-1.186 3.082-14.23 9.932-34.798 11.03-1.847.07-3.634.162-5.627.162-11.112 0-22.092-1.822-30.479-5.028l-.101-.162c-.59-1.119-1.221-2.206-1.902-3.255-.101-.162-.217-.303-.323-.46-.636-.946-1.287-1.871-1.988-2.758-.212-.27-.439-.508-.656-.773-.621-.757-1.247-1.492-1.918-2.195-.338-.357-.707-.681-1.06-1.027-.585-.579-1.16-1.152-1.766-1.687l-.177-.1628.015-12.722c.252.146.565.27.827.411.832.443 1.68.865 2.573 1.276zm-66.659 60.998h-91.6267c-1.1606 0-2.3212-.044-3.4717-.125-9.9156-.719-20.4013-11.733-29.5196-31.008-18.832-39.772-8.21-89.103 25.0942-117.164l35.7162-27.877c5.8686-4.936 13.2056-7.656 20.6586-7.656H234.59c8.1644 0 15.562 4.671 20.5728 8.775l36.342 26.466c9.0223 7.418 16.551 16.49 22.4247 27.034-6.3884 1.416-12.5648 3.568-16.8035 6.726-.121.081-.237.162-.3532.254-.641.497-1.2262 1.027-1.766 1.568-.2222.238-.424.476-.631.719-.4036.47-.787.946-1.1 1.46-.2623.411-.454.865-.656 1.297-.1765.405-.3885.789-.5146 1.211-.2776.919-.4542 1.871-.4542 2.887v49.147c-1.6955-.747-3.4565-1.341-5.263-1.828l-.7065-.195c-1.766-.444-3.5726-.779-5.4145-.963-.2018-.022-.4137-.016-.6206-.032-1.0294-.087-2.069-.163-3.1286-.163-.555 0-1.085.054-1.635.081-.4288.016-.8578.038-1.2867.07-1.791.14-3.567.362-5.298.746-.03 0-.06 0-.101.016-.131.027-.252.086-.393.119-1.579.378-3.118.865-4.622 1.438-.545.205-1.09.411-1.624.638-1.498.649-2.962 1.351-4.37 2.184-.529.308-1.024.665-1.539 1-.984.649-1.942 1.319-2.866 2.054-.545.421-1.095.838-1.614 1.297-1.191 1.027-2.321 2.119-3.391 3.287-.469.508-.898 1.049-1.342 1.584-.757.909-1.478 1.855-2.159 2.828-.373.524-.757 1.027-1.11 1.568-.888 1.395-1.68 2.855-2.412 4.352-.282.584-.54 1.178-.807 1.784-.57 1.319-1.085 2.671-1.534 4.066-.131.405-.292.789-.403 1.2-.524 1.768-.908 3.606-1.211 5.461-.035.243-.116.47-.151.703-.04.297-.04.611-.075.903-.161 1.27-.262 2.557-.318 3.86-.02.47-.061.93-.065 1.406 0 .194-.03.389-.03.595 0 .854.081 1.692.126 2.541.202 4.666.909 9.353 2.221 13.668zm38.0275 16.22c-16.577 0-30.065-14.35-30.257-32.062 0-.417.01-.833.025-1.255.02-.595.05-1.19.091-1.774.035-.498.091-.99.151-1.482.05-.503.126-1 .201-1.492.232-1.406.525-2.795.923-4.142l.151-.422c.424-1.352.933-2.682 1.524-3.963l.166-.363c2.725-5.72 7.014-10.554 12.211-13.733l.06-.043c1.181-.719 2.422-1.325 3.684-1.866.328-.141.656-.271.989-.39 1.12-.433 2.26-.8 3.431-1.081.166-.033.318-.092.479-.125 1.463-.325 2.927-.487 4.38-.584.278-.016.555-.038.838-.044 1.488-.054 2.977-.011 4.44.173l.242.043c1.544.205 3.078.541 4.577 1l.065.016c1.549.487 3.068 1.103 4.551 1.855 1.362.703 2.689 1.47 3.936 2.362l.201.151c.172.13.333.27.505.406.838.649 1.64 1.325 2.412 2.055.187.173.369.357.555.541.767.757 1.504 1.568 2.195 2.406l.212.248c1.605 2 2.987 4.217 4.097 6.596.252.54.504 1.081.736 1.638.384.946.717 1.903 1.009 2.865l.075.217c.303.973.535 1.973.737 2.974l.05.233c.202.995.338 2 .444 3.011l.0402.27c.101 1.098.162 2.206.162 3.325 0 1.147-.061 2.287-.171 3.423-.015.173-.051.324-.071.497-.111.9734-.2524 1.947-.444 2.909l-.076.3244c-.217 1.0275-.474 2.0385-.787 3.044l-.0504.13c-.328 1.049-.7063 2.082-1.1453 3.1036-4.804 11.186-15.33 19.01-27.551 19.01zm65.599-16.22c-9.578 0-19.11-1.368-26.946-3.817.01-.011.01-.022.01-.033.489-1.752.847-3.558 1.13-5.396.065-.433.131-.865.186-1.314.227-1.86.388-3.731.388-5.661 0-1.406-.071-2.79-.202-4.163-.041-.503-.121-.984-.182-1.476-.086-.703-.152-1.406-.263-2.087 7.655 1.514 16.551 2.314 25.876 2.314 12.06 0 29.494-1.649 40.389-6.813l.03 17.247c-1.292 3.341-16.602 11.192-40.419 11.192zm0-64.881c-23.732 0-39.007-7.786-40.344-10.781l.01-17.626.403.162c1.211.551 2.472 1.07 3.809 1.546l.217.075c1.372.475 2.826.903 4.299 1.297.484.129.984.248 1.478.367 1.08.27 2.17.519 3.28.746l1.625.325c1.226.232 2.457.432 3.703.632.388.054.777.13 1.17.189 1.63.232 3.26.432 4.879.605.404.043.807.075 1.211.108 1.246.124 2.473.232 3.699.324l1.564.097c1.13.07 2.23.124 3.32.162.464.022.923.043 1.372.054 1.479.054 2.927.076 4.289.076 1.352 0 2.795-.027 4.274-.07l1.383-.054c1.08-.044 2.17-.098 3.3-.163l1.584-.108c1.221-.087 2.457-.195 3.704-.325.403-.033.797-.065 1.201-.108 1.624-.173 3.254-.379 4.884-.611.404-.054.792-.13 1.191-.19 1.241-.189 2.472-.4 3.694-.632l1.624-.325c1.11-.233 2.21-.487 3.295-.757.494-.119.989-.233 1.473-.362 1.514-.4 2.978-.833 4.38-1.32l.202-.076c1.312-.465 2.564-.973 3.749-1.514.141-.07.303-.124.454-.189l.025 17.236c-1.297 3.352-16.612 11.208-40.419 11.208z"/>
		</g>
	</symbol>
</svg>