<svg xmlns="http://www.w3.org/2000/svg" viewBox="0 0 512.002 512.002"><path d="M335.444 93.144l-74.753-42.05c-2.91-1.638-6.468-1.638-9.383 0l-74.753 42.05c-3.792 2.133-5.668 6.557-4.565 10.765 1.102 4.21 4.905 7.145 9.256 7.145h149.506c4.35 0 8.155-2.936 9.258-7.146 1.103-4.21-.773-8.633-4.566-10.766zm-117.663-1.23L256 70.417l38.22 21.5h-76.44z"/><path d="M493.126 447.216H482.62v-32.888c0-5.872-4.762-10.633-10.633-10.633H448.75v-24.24c0-5.292-4.073-9.626-9.253-10.06l-4.024-136.88h3.175c5.58 0 10.102-4.52 10.102-10.1v-24.242h23.238c5.872 0 10.633-4.762 10.633-10.633v-32.887h10.507c4.835 0 9.062-3.26 10.287-7.94 1.225-4.676-.86-9.59-5.074-11.962L261.214 1.367c-3.236-1.82-7.19-1.82-10.426 0L13.662 134.75c-4.214 2.37-6.298 7.285-5.073 11.963 1.224 4.677 5.45 7.94 10.285 7.94H29.38v32.886c0 5.87 4.76 10.632 10.633 10.632h23.24v24.24c0 5.58 4.52 10.103 10.1 10.103h3.175l-4.024 136.88c-5.18.432-9.252 4.766-9.252 10.06v24.24h-23.24c-5.872 0-10.632 4.76-10.632 10.632v32.888H18.874c-5.873 0-10.633 4.76-10.633 10.633v43.52c0 5.87 4.762 10.632 10.634 10.632h474.25c5.874 0 10.634-4.762 10.634-10.633v-43.52c0-5.87-4.76-10.63-10.632-10.63zM256 22.836l196.533 110.55H59.467L256 22.836zM50.647 176.906v-22.254h410.706v22.254H50.647zm377.897 213.18v13.608h-49.46v-13.607h49.46zm-39.12-21.267l3.992-135.774h20.796l3.017 102.648.973 33.125h-28.778zM427.84 212.31c-1.04-.34-2.15-.532-3.303-.532H383.09c-1.154 0-2.262.19-3.303.532h-.705v-14.14h49.46v14.14h-.704zM291.68 369.395l-1.007-34.325-3.015-102.554h3.175c5.58 0 10.102-4.522 10.102-10.102v-24.24h57.945v24.24c0 5.58 4.522 10.102 10.102 10.102h3.174l-4.025 136.88c-5.18.432-9.25 4.766-9.25 10.058v24.24h-57.946v-24.24c0-5.293-4.07-9.627-9.253-10.06zm-10.95 20.692v13.607h-49.46v-13.607h49.46zm-39.118-21.265l3.99-135.774H266.4l3.99 135.774h-28.776zm38.413-156.51c-1.04-.34-2.15-.532-3.303-.532h-41.446c-1.154 0-2.26.19-3.303.532h-.705v-14.14h49.463v14.14h-.705zM143.867 369.396l-4.024-136.88h3.175c5.58 0 10.102-4.522 10.102-10.102v-24.24h57.946v24.24c0 5.58 4.522 10.102 10.102 10.102h3.174l-4.024 136.88c-5.18.432-9.252 4.766-9.252 10.06v24.24H153.12v-24.24c0-5.294-4.07-9.627-9.253-10.06zm-10.95 20.69v13.608h-49.46v-13.607h49.46zM93.8 368.822l3.99-135.773h20.795l3.99 135.774H93.8zm38.412-156.508c-1.04-.34-2.15-.532-3.303-.532H87.463c-1.154 0-2.26.19-3.303.532h-.704v-14.14h49.46v14.14h-.704zm-81.565 212.65h410.706v22.254H50.647V424.96zm431.845 65.773H29.508V468.48h452.985v22.255z"/></svg>